<?xml version="1.0"?>
<svg xmlns="http://www.w3.org/2000/svg" xmlns:xlink="http://www.w3.org/1999/xlink" version="1.1" id="Capa_1" x="0px" y="0px" viewBox="0 0 512 512" style="enable-background:new 0 0 512 512;" xml:space="preserve" width="512px" height="512px" class=""><g><path style="fill:#B7E0F6;" d="M74.998,242.001c-8.291,0-15-6.709-15-15V45.005c0-24.813,20.186-44.999,44.999-44.999h59.999  c24.813,0,44.999,20.186,44.999,44.999c0,8.291-6.709,15-15,15s-15-6.709-15-15c0-8.276-6.738-15-15-15h-59.999  c-8.262,0-15,6.724-15,15v181.996C89.998,235.292,83.289,242.001,74.998,242.001z" data-original="#B7E0F6"/><path style="fill:#A4D9F5;" d="M104.998,182.002H44.999c-8.291,0-15-6.709-15-15s6.709-15,15-15h59.999c8.291,0,15,6.709,15,15  S113.288,182.002,104.998,182.002z" data-original="#A4D9F5" class=""/><path style="fill:#FEA832;" d="M134.997,511.994c-24.813,0-44.999-20.186-44.999-44.999s20.186-44.999,44.999-44.999  s44.999,20.186,44.999,44.999S159.81,511.994,134.997,511.994z" data-original="#FEA832"/><path style="fill:#FE9923;" d="M346.992,511.994c-24.813,0-44.999-20.186-44.999-44.999s20.186-44.999,44.999-44.999  s44.999,20.186,44.999,44.999S371.805,511.994,346.992,511.994z" data-original="#FE9923" class=""/><path style="fill:#B7E0F6;" d="M461.891,231.201l-35.401,17.699c-10.499,5.4-22.202,8.101-33.599,8.101H44.999  c-9.302,0-16.501,8.699-14.7,17.999l25.198,140.997c4.2,20.7,22.499,35.999,44.102,35.999h243.492  c44.699,0,84.296-28.499,98.996-70.798l40.502-131.697C487.087,236.9,473.888,225.201,461.891,231.201z" data-original="#B7E0F6"/><path style="fill:#A4D9F5;" d="M461.891,231.201l-35.401,17.699c-10.499,5.4-22.202,8.101-33.599,8.101H224.995v194.995h118.097  c44.699,0,84.296-28.499,98.996-70.798L482.59,249.5C487.087,236.9,473.888,225.201,461.891,231.201z" data-original="#A4D9F5" class=""/><g>
	<path style="fill:#FEA832;" d="M224.995,38.075c-1.46-0.86-2.96-1.65-4.5-2.37c-7.8-3.6-16.5-5.7-25.499-5.7   c-32.999,0-59.999,26.999-59.999,59.999v15c0,8.4,6.6,15,15,15h89.998c8.4,0,15-6.6,15-15v-15   C254.994,67.815,242.934,48.445,224.995,38.075z" data-original="#FEA832"/>
	<path style="fill:#FEA832;" d="M406.99,272H29.999C13.418,272,0,258.567,0,242.001s13.418-29.999,29.999-29.999h371.22   l69.637-27.86c15.264-6.079,32.841,1.318,38.993,16.714c6.152,15.396-1.348,32.841-16.729,39.008l-74.998,29.999   C414.578,271.268,410.799,272,406.99,272z" data-original="#FEA832"/>
</g><path style="fill:#FE9923;" d="M470.856,184.141l-69.637,27.86H224.995V272H406.99c3.809,0,7.588-0.732,11.133-2.139l74.998-29.999  c15.381-6.167,22.88-23.612,16.729-39.008C503.698,185.458,486.12,178.062,470.856,184.141z" data-original="#FE9923" class=""/></g> </svg>
