<svg id="Layer_1" enable-background="new 0 0 511.95 511.95" height="512" viewBox="0 0 511.95 511.95" width="512" xmlns="http://www.w3.org/2000/svg"><path d="m0 0h511.949v511.95h-511.949z" fill="#f4f1f1"/><path d="m255.975 0h255.975v511.95h-255.975z" fill="#eceae7"/><circle cx="136.186" cy="121.83" fill="#00e4ef" r="41.374"/><path d="m61.554 163.207v169.384h29.673v98.903h89.918v-98.903h29.673v-169.384z" fill="#00e4ef"/><circle cx="375.764" cy="121.83" fill="#ff3d7d" r="41.374"/><path d="m425.144 163.207h-98.76l-27.927 169.384h32.348v98.903h89.918v-98.903h32.349z" fill="#ff3d7d"/><path d="m240.975 66.262h30v381.85h-30z" fill="#174c5e"/><path d="m255.975 66.262h15v381.85h-15z" fill="#06262f"/><path d="m177.56 121.831c0-22.814-18.561-41.375-41.374-41.375v82.749c22.814 0 41.374-18.56 41.374-41.374z" fill="#2ebeef"/><path d="m136.186 163.207v268.287h44.959v-98.903h29.673v-169.384z" fill="#2ebeef"/><g fill="#b10f61"><path d="m417.138 121.831c0-22.814-18.561-41.375-41.374-41.375v82.749c22.814 0 41.374-18.56 41.374-41.374z"/><path d="m425.144 163.207h-49.38v268.287h44.959v-98.903h32.349z"/></g></svg>