<?xml version="1.0" encoding="iso-8859-1"?>
<!-- Generator: Adobe Illustrator 19.0.0, SVG Export Plug-In . SVG Version: 6.00 Build 0)  -->
<svg version="1.1" id="Capa_1" xmlns="http://www.w3.org/2000/svg" xmlns:xlink="http://www.w3.org/1999/xlink" x="0px" y="0px"
	 viewBox="0 0 512 512" style="enable-background:new 0 0 512 512;" xml:space="preserve">
<rect y="229.517" style="fill:#D3843D;" width="512" height="35.31"/>
<rect x="17.655" y="264.828" style="fill:#FFF69A;" width="476.69" height="247.172"/>
<rect x="52.966" y="370.759" style="fill:#D3843D;" width="141.241" height="105.931"/>
<g>
	<circle style="fill:#FDBD40;" cx="70.621" cy="317.793" r="17.655"/>
	<circle style="fill:#FDBD40;" cx="176.552" cy="317.793" r="17.655"/>
</g>
<g>
	<rect x="326.621" y="291.31" style="fill:#D3843D;" width="70.621" height="17.655"/>
	<rect x="273.655" y="361.931" style="fill:#D3843D;" width="17.655" height="17.655"/>
</g>
<g>
	<rect x="361.931" y="397.241" style="fill:#B5554E;" width="17.655" height="35.31"/>
	<rect x="432.552" y="397.241" style="fill:#B5554E;" width="17.655" height="35.31"/>
</g>
<g>
	<polygon style="fill:#FDBD40;" points="494.345,326.621 238.345,326.621 238.345,264.828 220.69,264.828 220.69,512 238.345,512 
		238.345,344.276 308.966,344.276 308.966,512 326.621,512 326.621,344.276 397.241,344.276 397.241,512 414.897,512 
		414.897,344.276 494.345,344.276 	"/>
	<polygon style="fill:#FDBD40;" points="229.517,123.586 0,123.586 44.138,35.31 185.379,35.31 	"/>
</g>
<rect x="44.138" style="fill:#D3843D;" width="141.241" height="35.31"/>
<rect x="229.517" style="fill:#FFF69A;" width="282.483" height="123.586"/>
<rect x="361.931" style="fill:#FDBD40;" width="17.655" height="123.586"/>
<g>
	<rect x="326.621" y="79.448" style="fill:#B5554E;" width="17.655" height="17.655"/>
	<rect x="397.241" y="79.448" style="fill:#B5554E;" width="17.655" height="17.655"/>
</g>
<rect x="97.103" y="397.241" style="fill:#FFF69A;" width="52.966" height="17.655"/>
<g>
</g>
<g>
</g>
<g>
</g>
<g>
</g>
<g>
</g>
<g>
</g>
<g>
</g>
<g>
</g>
<g>
</g>
<g>
</g>
<g>
</g>
<g>
</g>
<g>
</g>
<g>
</g>
<g>
</g>
</svg>
