<?xml version="1.0" encoding="iso-8859-1"?>
<!-- Generator: Adobe Illustrator 19.0.0, SVG Export Plug-In . SVG Version: 6.00 Build 0)  -->
<svg version="1.1" id="Capa_1" xmlns="http://www.w3.org/2000/svg" xmlns:xlink="http://www.w3.org/1999/xlink" x="0px" y="0px"
	 viewBox="0 0 512 512" style="enable-background:new 0 0 512 512;" xml:space="preserve">
<path style="fill:#57555C;" d="M351,512H241V377h110V512z"/>
<path style="fill:#8B8992;" d="M256,512h-75V377h75V512z"/>
<path style="fill:#FFF5CB;" d="M512,407H120V117h277c63.411,0,115,51.589,115,115V407z"/>
<path style="fill:#FFDBA9;" d="M397,117H256v290h256V232C512,168.589,460.411,117,397,117z"/>
<path style="fill:#FF4F19;" d="M230,407H0V232c0-63.411,51.589-115,115-115s115,51.589,115,115V407z"/>
<rect x="290" y="15" style="fill:#57555C;" width="30" height="238"/>
<path style="fill:#E70020;" d="M365,90h-75V0h75c24.813,0,45,20.187,45,45S389.813,90,365,90z"/>
<path style="fill:#FF8900;" d="M305,328c-24.813,0-45-20.187-45-45s20.187-45,45-45s45,20.187,45,45S329.813,328,305,328z"/>
<g>
</g>
<g>
</g>
<g>
</g>
<g>
</g>
<g>
</g>
<g>
</g>
<g>
</g>
<g>
</g>
<g>
</g>
<g>
</g>
<g>
</g>
<g>
</g>
<g>
</g>
<g>
</g>
<g>
</g>
</svg>
