<svg id="Layer_1" height="512" viewBox="0 0 512 512" width="512" xmlns="http://www.w3.org/2000/svg" data-name="Layer 1"><path d="m238.148 206.63-35.758 35.759a6 6 0 1 0 8.484 8.486l35.759-35.759a6 6 0 1 0 -8.485-8.486z"/><path d="m256.533 188.246-3.97 3.969a6 6 0 1 0 8.485 8.485l3.97-3.969a6 6 0 1 0 -8.485-8.485z"/><path d="m369.77 297.253a6 6 0 0 0 -8.485 0l-12.924 12.924-22.688-22.688 67.406-67.406a6 6 0 0 0 0-8.486l-31.353-31.353 14.725-14.726a70.427 70.427 0 0 0 33.517 8.482h.233a71.468 71.468 0 0 0 50.778-21.268 6.118 6.118 0 0 0 1.757-4.293 6 6 0 0 0 -1.757-4.241l-43.054-43.052 14.747-14.746a20.878 20.878 0 0 0 25.579-3.09 20.9 20.9 0 1 0 -33.641-5.822l-15.171 15.173-41.634-41.633a6 6 0 0 0 -8.485.006 71.473 71.473 0 0 0 -12.8 84.474l-14.767 14.766-31.353-31.354a6 6 0 0 0 -8.484 0l-67.407 67.407-22.689-22.688 12.924-12.924a6 6 0 0 0 0-8.485l-119.636-119.638a6 6 0 0 0 -8.484 0l-64.031 64.032a6 6 0 0 0 0 8.485l119.637 119.638a6 6 0 0 0 8.485 0l10.8-10.8 22.688 22.688-56.86 56.86a6 6 0 0 0 0 8.486l31.357 31.35-15.483 15.483a72.009 72.009 0 0 0 -84.417 12.728 6 6 0 0 0 0 8.485l42.344 42.344-14.27 14.27a20.925 20.925 0 1 0 8.476 8.5l14.28-14.28 42.344 42.339a6 6 0 0 0 8.484 0 72.329 72.329 0 0 0 12.725-84.414l15.486-15.486 31.354 31.354a6 6 0 0 0 8.485 0l56.86-56.86 22.689 22.688-10.8 10.8a6 6 0 0 0 0 8.485l119.635 119.641a6 6 0 0 0 8.484 0l64.031-64.032a6 6 0 0 0 0-8.485zm67.405-235.019a8.9 8.9 0 1 1 0 12.59 8.873 8.873 0 0 1 0-12.59zm-353.925 379.107a8.9 8.9 0 0 1 -12.591-12.591 8.9 8.9 0 0 1 12.59 12.591zm354.674-58.963-23.53 23.53-33.641-33.64 23.53-23.531zm-72.4-72.4 30.276 30.274-23.53 23.531-30.27-30.271zm-1.758-246.025 84.282 84.333a59.277 59.277 0 0 1 -37.848 13.714h-.194a59.95 59.95 0 0 1 -46.24-98.047zm-10.55 81.832a74.055 74.055 0 0 0 6.1 6.947 75.114 75.114 0 0 0 6.884 6.068l-12.96 12.959-13-13zm-.667 42.252-11.315 11.314-28.585-28.586 11.314-11.314zm-150.53-41.564-23.531 23.527-33.641-33.641 23.531-23.53zm-42.126-42.126-23.531 23.531-33.641-33.641 23.531-23.531zm-69.027-69.027 26.9 26.9-23.53 23.532-26.9-26.9zm-55.546 55.547 23.531-23.531 26.9 26.9-23.53 23.53zm35.386 35.385 23.53-23.531 33.641 33.641-23.53 23.531zm75.767 75.767-33.641-33.641 23.53-23.531 33.638 33.641zm23.527-6.561 23.335-23.334 22.688 22.688-23.335 23.335zm-14 244.8-84.262-84.258a59.9 59.9 0 0 1 84.262 84.26zm10.525-81.79a69.9 69.9 0 0 0 -13-13l13.657-13.656 13 13zm2.19-42.09 11.314-11.314 26.9 26.9-11.309 11.317zm55.547 55.546-20.162-20.158 15.557-15.557a6 6 0 0 0 0-8.485l-35.386-35.386a6 6 0 0 0 -8.484 0l-15.553 15.562-20.161-20.16 26.289-26.289 84.192 84.192zm34.773-34.773-84.191-84.192 85.184-85.185 13.907 13.907a6 6 0 1 0 8.485-8.485l-13.906-13.907 27.642-27.643 19.319 19.318-15.557 15.556a6 6 0 0 0 0 8.486l37.07 37.071a6 6 0 0 0 8.485 0l15.556-15.557 19.319 19.318-27.643 27.643-42-42a6 6 0 0 0 -8.485 8.485l42 42zm34.814-17.844 23.335-23.334 22.687 22.688-23.33 23.339zm16.128 46.218 23.535-23.525 30.271 30.271-23.531 23.529zm38.756 38.756 23.531-23.531 33.641 33.641-23.531 23.531zm72.4 72.4-30.271-30.271 23.531-23.531 30.27 30.271zm32.015-32.016-30.27-30.271 23.53-23.53 30.271 30.27z"/></svg>