<?xml version="1.0" encoding="UTF-8" standalone="no"?>
<svg
   xmlns:dc="http://purl.org/dc/elements/1.1/"
   xmlns:cc="http://creativecommons.org/ns#"
   xmlns:rdf="http://www.w3.org/1999/02/22-rdf-syntax-ns#"
   xmlns:svg="http://www.w3.org/2000/svg"
   xmlns="http://www.w3.org/2000/svg"
   xmlns:sodipodi="http://sodipodi.sourceforge.net/DTD/sodipodi-0.dtd"
   xmlns:inkscape="http://www.inkscape.org/namespaces/inkscape"
   width="78.597054mm"
   height="123.78659mm"
   viewBox="0 0 78.597054 123.78659"
   version="1.1"
   id="svg1364"
   sodipodi:docname="SpaceShipFireL.svg"
   inkscape:version="1.0.1 (3bc2e813f5, 2020-09-07)">
  <defs
     id="defs1358">
    <clipPath
       clipPathUnits="userSpaceOnUse"
       id="clipPath942">
      <rect
         style="fill:#800000;fill-opacity:1;stroke-width:1.28665"
         id="rect944"
         width="647.07178"
         height="654.25665"
         x="-214.20323"
         y="-463.29007"
         transform="rotate(45.483927)" />
    </clipPath>
  </defs>
  <sodipodi:namedview
     id="base"
     pagecolor="#ffffff"
     bordercolor="#666666"
     borderopacity="1.0"
     inkscape:pageopacity="0.0"
     inkscape:pageshadow="2"
     inkscape:zoom="0.7"
     inkscape:cx="429.94683"
     inkscape:cy="317.54402"
     inkscape:document-units="mm"
     inkscape:current-layer="g823"
     inkscape:document-rotation="0"
     showgrid="false"
     inkscape:window-width="2560"
     inkscape:window-height="1377"
     inkscape:window-x="-8"
     inkscape:window-y="-8"
     inkscape:window-maximized="1"
     fit-margin-top="0"
     fit-margin-left="0"
     fit-margin-right="0"
     fit-margin-bottom="0" />
  <metadata
     id="metadata1361">
    <rdf:RDF>
      <cc:Work
         rdf:about="">
        <dc:format>image/svg+xml</dc:format>
        <dc:type
           rdf:resource="http://purl.org/dc/dcmitype/StillImage" />
        <dc:title></dc:title>
      </cc:Work>
    </rdf:RDF>
  </metadata>
  <g
     inkscape:label="Layer 1"
     inkscape:groupmode="layer"
     id="layer1"
     transform="translate(-65.701473,-173.21341)">
    <g
       id="g823"
       transform="matrix(0.50932032,-0.51027645,0.51799736,0.50172877,22.982941,160.77943)"
       clip-path="url(#clipPath942)">
      <g
         id="g12"
         transform="matrix(0.99609375,0,0,0.99609375,-57.603605,-295.07517)">
        <path
           style="fill:#f79548"
           d="m 124.509,388.978 c -20.945,-20.945 -55.855,-20.945 -76.8,0 C 18.618,418.069 1.1467656,503.06332 0.34355626,506.62044 0.12790473,509.06236 0.11552711,509.94855 1.164,511.16 c 1.3021102,1.50452 3.6509283,1.21239 6.9392181,0.75282 C 11.60358,511.19286 96.582,494.869 125.673,464.615 c 20.945,-20.946 20.945,-54.692 -1.164,-75.637 z"
           id="path10"
           sodipodi:nodetypes="cscsccc" />
      </g>
      <path
         style="fill:#fcbb76;stroke-width:0.996094"
         d="m 62.941665,93.541844 c -10.43209,-10.43209 -27.817907,-10.43209 -38.249997,0 C 9.623758,108.60975 1.6461408,150.34312 1.509579,151.49657 c -0.1348334,1.13885 -0.53570775,2.05101 0.480439,3.00444 0.8849077,0.91082 1.8371601,0.55482 2.996924,0.47292 2.3145923,-0.16346 44.045273,-9.27264 57.954723,-23.18209 10.43209,-10.4311 10.43209,-27.81791 0,-38.249996 z"
         id="path14"
         sodipodi:nodetypes="ssscscs" />
    </g>
  </g>
</svg>
