<?xml version="1.0" encoding="UTF-8" standalone="no"?>
<svg
   xmlns:dc="http://purl.org/dc/elements/1.1/"
   xmlns:cc="http://creativecommons.org/ns#"
   xmlns:rdf="http://www.w3.org/1999/02/22-rdf-syntax-ns#"
   xmlns:svg="http://www.w3.org/2000/svg"
   xmlns="http://www.w3.org/2000/svg"
   xmlns:xlink="http://www.w3.org/1999/xlink"
   xmlns:sodipodi="http://sodipodi.sourceforge.net/DTD/sodipodi-0.dtd"
   xmlns:inkscape="http://www.inkscape.org/namespaces/inkscape"
   width="690.56091"
   height="735.0603"
   viewBox="0 0 182.7109 194.48471"
   version="1.1"
   id="svg956"
   inkscape:version="1.0.1 (3bc2e813f5, 2020-09-07)"
   sodipodi:docname="SpaceShipL.svg">
  <defs
     id="defs950">
    <clipPath
       clipPathUnits="userSpaceOnUse"
       id="clipPath910">
      <rect
         style="fill:#800000;fill-opacity:1;stroke-width:0.885178"
         id="rect912"
         width="392.81067"
         height="510.10193"
         x="57.93663"
         y="-35.432404" />
    </clipPath>
    <clipPath
       clipPathUnits="userSpaceOnUse"
       id="clipPath914">
      <rect
         style="fill:#800000;fill-opacity:1;stroke-width:1.00677"
         id="rect916"
         width="510.13315"
         height="508.10938"
         x="0"
         y="1.4310493" />
    </clipPath>
    <clipPath
       clipPathUnits="userSpaceOnUse"
       id="clipPath918">
      <rect
         style="fill:#800000;fill-opacity:1;stroke-width:0.885178"
         id="rect920"
         width="392.81067"
         height="510.10193"
         x="57.93663"
         y="-35.432404" />
    </clipPath>
    <clipPath
       clipPathUnits="userSpaceOnUse"
       id="clipPath922">
      <rect
         style="fill:#800000;fill-opacity:1;stroke-width:1.01072"
         id="rect924"
         width="512.13367"
         height="510.10196"
         x="0"
         y="1.4366614" />
    </clipPath>
    <clipPath
       clipPathUnits="userSpaceOnUse"
       id="clipPath926">
      <rect
         style="fill:#800000;fill-opacity:1;stroke-width:1.00677"
         id="rect928"
         width="510.13315"
         height="508.10938"
         x="0"
         y="1.4310493" />
    </clipPath>
    <clipPath
       clipPathUnits="userSpaceOnUse"
       id="clipPath930">
      <rect
         style="fill:#800000;fill-opacity:1;stroke-width:1.01072"
         id="rect932"
         width="512.13367"
         height="510.10196"
         x="0"
         y="1.4366614" />
    </clipPath>
    <clipPath
       clipPathUnits="userSpaceOnUse"
       id="clipPath934">
      <rect
         style="fill:#800000;fill-opacity:1;stroke-width:0.885178"
         id="rect936"
         width="392.81067"
         height="510.10193"
         x="57.93663"
         y="-35.432404" />
    </clipPath>
    <clipPath
       clipPathUnits="userSpaceOnUse"
       id="clipPath938">
      <rect
         style="fill:#800000;fill-opacity:1;stroke-width:1.00677"
         id="rect940"
         width="510.13315"
         height="508.10938"
         x="0"
         y="1.4310493" />
    </clipPath>
    <clipPath
       clipPathUnits="userSpaceOnUse"
       id="clipPath942">
      <rect
         style="fill:#800000;fill-opacity:1;stroke-width:1.28665"
         id="rect944"
         width="647.07178"
         height="654.25665"
         x="-214.20323"
         y="-463.29007"
         transform="rotate(45.483927)" />
    </clipPath>
    <clipPath
       clipPathUnits="userSpaceOnUse"
       id="clipPath946">
      <rect
         style="fill:#800000;fill-opacity:1;stroke-width:1.96021"
         id="rect948"
         width="993.24194"
         height="989.30164"
         x="-243.9541"
         y="-333.1741" />
    </clipPath>
    <linearGradient
       id="SVGID_11_"
       gradientUnits="userSpaceOnUse"
       x1="121.751"
       x2="180.937"
       xlink:href="#lg2"
       y1="277.40399"
       y2="315.452" />
    <linearGradient
       id="lg2">
      <stop
         offset="0"
         stop-color="#ff4181"
         id="stop18" />
      <stop
         offset="1"
         stop-color="#843561"
         id="stop20" />
    </linearGradient>
    <linearGradient
       id="SVGID_12_"
       gradientUnits="userSpaceOnUse"
       x1="352.88901"
       x2="391.54199"
       xlink:href="#lg2"
       y1="285.75101"
       y2="344.93701" />
    <linearGradient
       id="SVGID_13_"
       gradientUnits="userSpaceOnUse"
       x1="215.442"
       x2="273.24399"
       y1="189.925"
       y2="189.925">
      <stop
         offset="0"
         stop-color="#edf5ff"
         id="stop53" />
      <stop
         offset="1"
         stop-color="#c7e9ff"
         id="stop55" />
    </linearGradient>
    <linearGradient
       id="SVGID_14_"
       gradientUnits="userSpaceOnUse"
       x1="229.271"
       x2="101.537"
       xlink:href="#lg4"
       y1="174.242"
       y2="109.017" />
    <linearGradient
       id="lg4">
      <stop
         offset="0"
         stop-color="#7acbff"
         stop-opacity="0"
         id="stop58" />
      <stop
         offset="1"
         stop-color="#2f73a0"
         id="stop60" />
    </linearGradient>
    <linearGradient
       id="SVGID_15_"
       gradientUnits="userSpaceOnUse"
       x1="332.49899"
       x2="225.379"
       xlink:href="#lg4"
       y1="249.506"
       y2="142.38499" />
    <linearGradient
       id="SVGID_16_"
       gradientUnits="userSpaceOnUse"
       x1="235.02699"
       x2="269.81799"
       y1="152.509"
       y2="187.3">
      <stop
         offset="0"
         stop-color="#fff"
         id="stop65" />
      <stop
         offset="1"
         stop-color="#edf5ff"
         id="stop67" />
    </linearGradient>
    <linearGradient
       id="SVGID_17_"
       gradientUnits="userSpaceOnUse"
       x1="229.468"
       x2="293.224"
       xlink:href="#lg5"
       y1="146.47501"
       y2="210.23" />
    <linearGradient
       id="lg5">
      <stop
         offset="0"
         stop-color="#dfdfdf"
         id="stop70" />
      <stop
         offset="1"
         stop-color="#9da6ac"
         id="stop72" />
    </linearGradient>
    <linearGradient
       id="SVGID_18_"
       gradientTransform="matrix(-0.972,0.236,-0.236,-0.972,-673.74,-613.29)"
       gradientUnits="userSpaceOnUse"
       x1="-738.888"
       x2="-684.23401"
       xlink:href="#lg5"
       y1="-1004.307"
       y2="-949.65302" />
    <linearGradient
       id="SVGID_19_"
       gradientUnits="userSpaceOnUse"
       x1="255"
       x2="255"
       xlink:href="#lg4"
       y1="308.29199"
       y2="340.95499" />
    <linearGradient
       id="SVGID_20_"
       gradientTransform="rotate(90,-384.279,-248.737)"
       gradientUnits="userSpaceOnUse"
       x1="216.244"
       x2="240.808"
       xlink:href="#lg1"
       y1="-888.01599"
       y2="-888.01599" />
    <linearGradient
       id="lg1">
      <stop
         offset="0"
         stop-color="#ff755c"
         id="stop7" />
      <stop
         offset="1"
         stop-color="#ff4181"
         id="stop9" />
    </linearGradient>
  </defs>
  <sodipodi:namedview
     id="base"
     pagecolor="#ffffff"
     bordercolor="#666666"
     borderopacity="1.0"
     inkscape:pageopacity="0.0"
     inkscape:pageshadow="2"
     inkscape:zoom="0.98994949"
     inkscape:cx="29.391065"
     inkscape:cy="270.38205"
     inkscape:document-units="px"
     inkscape:current-layer="layer1"
     inkscape:document-rotation="0"
     showgrid="false"
     inkscape:window-width="2560"
     inkscape:window-height="1377"
     inkscape:window-x="-8"
     inkscape:window-y="-8"
     inkscape:window-maximized="1"
     units="px"
     fit-margin-top="0"
     fit-margin-left="0"
     fit-margin-right="0"
     fit-margin-bottom="0" />
  <metadata
     id="metadata953">
    <rdf:RDF>
      <cc:Work
         rdf:about="">
        <dc:format>image/svg+xml</dc:format>
        <dc:type
           rdf:resource="http://purl.org/dc/dcmitype/StillImage" />
        <dc:title></dc:title>
      </cc:Work>
    </rdf:RDF>
  </metadata>
  <g
     inkscape:label="Layer 1"
     inkscape:groupmode="layer"
     id="layer1"
     transform="translate(-13.644544,-102.5153)">
    <g
       id="g129"
       transform="matrix(0.51484686,0,0,0.50627232,-26.285949,102.51549)"
       clip-path="url(#clipPath946)">
      <g
         id="g99"
         transform="translate(270.90303,52.702952)" />
      <g
         id="g127">
        <g
           id="g105">
          <path
             d="M 171.039,361.092 V 202.558 l -56.155,56.155 c -23.899,23.899 -37.326,56.314 -37.326,90.113 0,6.774 5.492,12.266 12.266,12.266 z"
             fill="url(#SVGID_11_)"
             id="path101"
             style="fill:url(#SVGID_11_)" />
          <path
             d="M 338.961,361.092 V 202.558 l 56.155,56.155 c 23.9,23.899 37.326,56.314 37.326,90.113 0,6.774 -5.492,12.266 -12.266,12.266 z"
             fill="url(#SVGID_12_)"
             id="path103"
             style="fill:url(#SVGID_12_)" />
        </g>
        <path
           d="m 223.601,14.498 c -41.623,48.851 -64.483,110.93 -64.483,175.108 V 379.85 H 350.883 V 189.605 c 0,-64.178 -22.861,-126.257 -64.483,-175.108 -16.471,-19.33 -46.329,-19.33 -62.799,10e-4 z"
           fill="url(#SVGID_13_)"
           id="path107"
           style="fill:url(#SVGID_13_)" />
        <path
           d="M 350.883,379.849 V 189.605 C 350.883,125.427 328.022,63.348 286.4,14.497 278.164,4.833 266.582,0 255,0 v 379.849 z"
           fill="url(#SVGID_14_)"
           id="path109"
           style="fill:url(#SVGID_14_)" />
        <path
           d="m 207.809,125.722 c -27.064,27.064 -28.877,68.227 -1.813,95.291 l 144.887,144.8 V 189.605 c 0,-6.871 -0.278,-13.715 -0.797,-20.524 l -46.079,-46.079 c -27.065,-27.064 -69.134,-24.344 -96.198,2.72 z"
           fill="url(#SVGID_15_)"
           id="path111"
           style="fill:url(#SVGID_15_)" />
        <g
           id="g121">
          <circle
             cx="254.717"
             cy="172.19901"
             fill="url(#SVGID_16_)"
             r="51.251999"
             id="circle113"
             style="fill:url(#SVGID_16_)" />
          <g
             id="g119">
            <path
               d="m 304.007,123.002 c -27.064,-27.064 -70.946,-27.064 -98.01,0 -27.064,27.064 -27.064,70.946 0,98.01 27.064,27.064 70.941,27.059 98.005,-0.005 27.064,-27.064 27.069,-70.94 0.005,-98.005 z M 221.709,205.3 c -18.39,-18.39 -18.384,-48.201 0,-66.585 18.39,-18.39 48.195,-18.39 66.585,0 18.384,18.384 18.39,48.195 0,66.585 -18.385,18.384 -48.201,18.384 -66.585,0 z"
               fill="url(#SVGID_17_)"
               id="path115"
               style="fill:url(#SVGID_17_)" />
            <path
               d="m 285.902,121.264 c -28.025,-17.066 -64.577,-8.182 -81.643,19.843 -17.066,28.025 -8.178,64.571 19.847,81.636 28.019,17.062 64.567,8.184 81.632,-19.841 17.065,-28.025 8.183,-64.576 -19.836,-81.638 z m -55.387,90.957 c -22.213,-13.526 -29.248,-42.495 -15.726,-64.701 13.526,-22.213 42.489,-29.252 64.701,-15.726 22.206,13.522 29.252,42.489 15.726,64.701 -13.522,22.206 -42.495,29.248 -64.701,15.726 z"
               fill="url(#SVGID_18_)"
               id="path117"
               style="fill:url(#SVGID_18_)" />
          </g>
        </g>
        <path
           d="m 159.117,291.985 h 191.765 v 57.978 H 159.117 Z"
           fill="url(#SVGID_19_)"
           id="path123"
           style="fill:url(#SVGID_19_)" />
        <path
           d="m 161.64,384.15 h 186.72 c 5.737,0 10.388,-4.651 10.388,-10.388 v -33.32 c 0,-5.737 -4.651,-10.388 -10.388,-10.388 H 161.64 c -5.737,0 -10.388,4.651 -10.388,10.388 v 33.32 c -0.001,5.737 4.65,10.388 10.388,10.388 z"
           fill="url(#SVGID_20_)"
           id="path125"
           style="fill:url(#SVGID_20_)" />
      </g>
    </g>
  </g>
</svg>
