<?xml version="1.0" encoding="iso-8859-1"?>
<!-- Generator: Adobe Illustrator 21.0.0, SVG Export Plug-In . SVG Version: 6.00 Build 0)  -->
<svg xmlns="http://www.w3.org/2000/svg" xmlns:xlink="http://www.w3.org/1999/xlink" version="1.1" id="Capa_1" x="0px" y="0px" viewBox="0 0 504.5 504.5" style="enable-background:new 0 0 504.5 504.5;" xml:space="preserve" width="512" height="512">
<g>
	<path style="fill:#E5646E;" d="M237.011,399.29l23.095,23.096c0,0-19.503,35.115-26.004,46.821   c-1.661,3.217-2.038,6.38,1.446,9.864c3.484,3.483,10.452,10.449,13.935,13.933c3.135,3.135,5.587,1.7,8.2-0.913   c22.786-22.785,91.141-91.142,91.141-91.142c11.806-11.823,11.759-31.095-0.042-42.916l-35.254-35.258L237.011,399.29z"/>
	<path style="fill:#857E87;" d="M111.941,295.031c5.769-5.751,15.12-5.753,20.889,0l39.845,36.415l36.123,39.556   c5.768,5.756,5.828,15.031,0.061,20.784l0.325-0.311c-5.771,5.752-15.19,5.82-20.958,0.063l-75.968-75.963   c-5.766-5.762-5.765-15.099,0-20.852L111.941,295.031z"/>
	<path style="fill:#FF8086;" d="M105.464,267.746l-23.096-23.095c0,0-35.116,19.503-46.821,26.005   c-3.217,1.66-6.38,2.037-9.864-1.446c-3.483-3.484-10.45-10.452-13.933-13.935c-3.135-3.135-1.7-5.587,0.913-8.2   c22.786-22.785,91.143-91.141,91.143-91.141c11.823-11.806,31.094-11.759,42.916,0.043l35.257,35.255L105.464,267.746z"/>
	<path style="fill:#FF8086;" d="M442.474,195.939c0,0,80.438-86.821,58.071-192.081l0.072,0.07   C395.18-18.399,308.222,61.733,308.222,61.733l66.002,71.517L442.474,195.939z"/>
	<g>
		<path style="fill:#E5646E;" d="M500.546,3.858c0.004,0.02,0.007,0.039,0.012,0.058c0.02,0.004,0.04,0.008,0.061,0.012    L500.546,3.858z"/>
		<path style="fill:#E5646E;" d="M500.557,3.917c-21.983-4.647-43.156-4.832-62.91-2.228c4.27,0.583,8.573,1.311,12.91,2.228    c-0.004-0.02-0.007-0.039-0.012-0.058l0.072,0.07c-0.02-0.004-0.04-0.008-0.061-0.012c14.78,69.67-15.464,131.244-37.598,164.912    l29.515,27.11C442.474,195.939,522.882,109.15,500.557,3.917z"/>
	</g>
	<polyline style="fill:#F0EEF0;" points="442.474,195.939 237.892,400.174 103.66,265.941 308.222,61.733  "/>
	<path style="fill:#DFDDE0;" d="M308.221,61.733l-15.009,14.983l87.932,87.901c11.777,11.773,11.77,30.866-0.014,42.631   l-168.225,167.94l24.987,24.987l204.582-204.235L308.221,61.733z"/>
	<polygon style="fill:#FFD064;" points="158.875,321.127 257.678,222.318 282.614,246.905 183.634,345.887  "/>
	<path style="fill:#FF8086;" d="M7.474,454.691c-6.56,0-9.938-8.176-5.299-12.808l55.405-55.33   c6.83-6.816,17.444,3.773,10.602,10.614l-55.408,55.33C11.31,453.959,9.392,454.691,7.474,454.691z"/>
	<path style="fill:#FF8086;" d="M7.965,504.017c-6.559,0-9.937-8.175-5.299-12.807l79.857-79.755   c6.826-6.817,17.446,3.777,10.6,10.614l-79.859,79.754C11.801,503.285,9.883,504.017,7.965,504.017z"/>
	<path style="fill:#FF8086;" d="M57.373,504.5c-6.561,0.003-9.937-8.174-5.302-12.806l55.399-55.336   c6.825-6.82,17.449,3.776,10.602,10.611l-55.4,55.337C61.209,503.769,59.29,504.5,57.373,504.5z"/>
	<path style="fill:#C3DDFF;" d="M346.428,236.314c-21.74,21.705-57.002,21.707-78.746,0.001   c-21.752-21.703-21.753-56.9,0.001-78.606c21.742-21.704,57.005-21.704,78.745,0.001   C368.184,179.417,368.184,214.613,346.428,236.314z"/>
	<path style="fill:#A4CCFF;" d="M346.427,157.71c-16.049-16.023-39.464-20.202-59.372-12.568   c7.059,2.707,13.681,6.886,19.372,12.568c21.757,21.707,21.757,56.902,0,78.604c-5.691,5.682-12.314,9.862-19.373,12.569   c19.909,7.635,43.324,3.454,59.373-12.569C368.184,214.613,368.184,179.417,346.427,157.71z"/>
	<path style="fill:#857E87;" d="M307.055,260.094c-16.875,0-32.739-6.559-44.671-18.469c-11.94-11.915-18.517-27.757-18.517-44.612   c0-16.853,6.576-32.696,18.519-44.61c11.929-11.91,27.794-18.47,44.67-18.47c16.875,0,32.741,6.56,44.671,18.471   c11.941,11.914,18.518,27.757,18.518,44.612c0,16.853-6.577,32.695-18.52,44.609C339.795,253.534,323.93,260.094,307.055,260.094z    M307.055,148.932c-12.872,0-24.975,5.003-34.072,14.087c-9.102,9.082-14.115,21.154-14.116,33.995   c0,12.841,5.012,24.912,14.113,33.993c9.101,9.084,21.201,14.087,34.075,14.087c12.874,0,24.974-5.002,34.074-14.086   c9.102-9.082,14.116-21.153,14.116-33.993c0-12.841-5.012-24.914-14.114-33.996C332.029,153.935,319.93,148.932,307.055,148.932z"/>
	<path style="fill:#FFD064;" d="M150.382,353.654c-0.07-0.073-0.147-0.151-0.221-0.221c-21.808-21.892-56.284-23.649-80.132-5.1   c-4.559,3.802-2.754,7.222-0.141,9.834l75.76,75.76c2.613,2.612,6.033,4.418,9.834-0.142   C174.032,409.938,172.273,375.462,150.382,353.654z"/>
	<path style="fill:#FFC250;" d="M150.382,353.654c-0.07-0.073-0.147-0.151-0.221-0.221c-10.935-10.977-25.056-16.889-39.424-17.72   c3.33,2.214,6.495,4.779,9.424,7.72c0.074,0.069,0.151,0.147,0.221,0.221c20.13,20.054,23.222,50.813,9.168,74.176l16.098,16.098   c2.613,2.612,6.033,4.418,9.834-0.142C174.032,409.938,172.273,375.462,150.382,353.654z"/>
</g>















</svg>
