<?xml version="1.0" encoding="UTF-8" standalone="no"?>
<svg
   xmlns:dc="http://purl.org/dc/elements/1.1/"
   xmlns:cc="http://creativecommons.org/ns#"
   xmlns:rdf="http://www.w3.org/1999/02/22-rdf-syntax-ns#"
   xmlns:svg="http://www.w3.org/2000/svg"
   xmlns="http://www.w3.org/2000/svg"
   xmlns:xlink="http://www.w3.org/1999/xlink"
   xmlns:sodipodi="http://sodipodi.sourceforge.net/DTD/sodipodi-0.dtd"
   xmlns:inkscape="http://www.inkscape.org/namespaces/inkscape"
   id="Capa_1"
   enable-background="new 0 0 510 510"
   height="152.48863"
   viewBox="0 0 514.29935 151.89297"
   width="516.31622"
   version="1.1"
   sodipodi:docname="SpaceShipCloud4L.svg"
   inkscape:version="1.0.1 (3bc2e813f5, 2020-09-07)">
  <metadata
     id="metadata136">
    <rdf:RDF>
      <cc:Work
         rdf:about="">
        <dc:format>image/svg+xml</dc:format>
        <dc:type
           rdf:resource="http://purl.org/dc/dcmitype/StillImage" />
        <dc:title></dc:title>
      </cc:Work>
    </rdf:RDF>
  </metadata>
  <defs
     id="defs134">
    <clipPath
       clipPathUnits="userSpaceOnUse"
       id="clipPath910">
      <rect
         style="fill:#800000;fill-opacity:1;stroke-width:0.885178"
         id="rect912"
         width="392.81067"
         height="510.10193"
         x="57.93663"
         y="-35.432404" />
    </clipPath>
    <clipPath
       clipPathUnits="userSpaceOnUse"
       id="clipPath914">
      <rect
         style="fill:#800000;fill-opacity:1;stroke-width:1.00677"
         id="rect916"
         width="510.13315"
         height="508.10938"
         x="0"
         y="1.4310493" />
    </clipPath>
    <clipPath
       clipPathUnits="userSpaceOnUse"
       id="clipPath918">
      <rect
         style="fill:#800000;fill-opacity:1;stroke-width:0.885178"
         id="rect920"
         width="392.81067"
         height="510.10193"
         x="57.93663"
         y="-35.432404" />
    </clipPath>
    <clipPath
       clipPathUnits="userSpaceOnUse"
       id="clipPath922">
      <rect
         style="fill:#800000;fill-opacity:1;stroke-width:1.01072"
         id="rect924"
         width="512.13367"
         height="510.10196"
         x="0"
         y="1.4366614" />
    </clipPath>
    <clipPath
       clipPathUnits="userSpaceOnUse"
       id="clipPath926">
      <rect
         style="fill:#800000;fill-opacity:1;stroke-width:1.00677"
         id="rect928"
         width="510.13315"
         height="508.10938"
         x="0"
         y="1.4310493" />
    </clipPath>
    <clipPath
       clipPathUnits="userSpaceOnUse"
       id="clipPath930">
      <rect
         style="fill:#800000;fill-opacity:1;stroke-width:1.01072"
         id="rect932"
         width="512.13367"
         height="510.10196"
         x="0"
         y="1.4366614" />
    </clipPath>
    <clipPath
       clipPathUnits="userSpaceOnUse"
       id="clipPath934">
      <rect
         style="fill:#800000;fill-opacity:1;stroke-width:0.885178"
         id="rect936"
         width="392.81067"
         height="510.10193"
         x="57.93663"
         y="-35.432404" />
    </clipPath>
    <clipPath
       clipPathUnits="userSpaceOnUse"
       id="clipPath938">
      <rect
         style="fill:#800000;fill-opacity:1;stroke-width:1.00677"
         id="rect940"
         width="510.13315"
         height="508.10938"
         x="0"
         y="1.4310493" />
    </clipPath>
    <clipPath
       clipPathUnits="userSpaceOnUse"
       id="clipPath942">
      <rect
         style="fill:#800000;fill-opacity:1;stroke-width:1.28665"
         id="rect944"
         width="647.07178"
         height="654.25665"
         x="-214.20323"
         y="-463.29007"
         transform="rotate(45.483927)" />
    </clipPath>
    <clipPath
       clipPathUnits="userSpaceOnUse"
       id="clipPath946">
      <rect
         style="fill:#800000;fill-opacity:1;stroke-width:1.96021"
         id="rect948"
         width="993.24194"
         height="989.30164"
         x="-243.9541"
         y="-333.1741" />
    </clipPath>
    <clipPath
       clipPathUnits="userSpaceOnUse"
       id="clipPath2314">
      <rect
         style="fill:#333333;fill-opacity:1;stroke-width:0.996094"
         id="rect2316"
         width="513.03119"
         height="526.62622"
         x="-2.8620987"
         y="0" />
    </clipPath>
    <clipPath
       clipPathUnits="userSpaceOnUse"
       id="clipPath2318">
      <rect
         style="fill:#333333;fill-opacity:1;stroke-width:0.996094"
         id="rect2320"
         width="513.03119"
         height="526.62622"
         x="-2.8620987"
         y="0" />
    </clipPath>
    <clipPath
       clipPathUnits="userSpaceOnUse"
       id="clipPath2322">
      <rect
         style="fill:#333333;fill-opacity:1;stroke-width:1.33834"
         id="rect2324"
         width="689.30365"
         height="707.56976"
         x="84.875755"
         y="-269.73352" />
    </clipPath>
    <clipPath
       clipPathUnits="userSpaceOnUse"
       id="clipPath2326">
      <rect
         style="fill:#333333;fill-opacity:1;stroke-width:0.996094"
         id="rect2328"
         width="513.03119"
         height="526.62622"
         x="-2.8620987"
         y="0" />
    </clipPath>
    <clipPath
       clipPathUnits="userSpaceOnUse"
       id="clipPath2330">
      <rect
         style="fill:#333333;fill-opacity:1;stroke-width:0.996094"
         id="rect2332"
         width="513.03119"
         height="526.62622"
         x="-2.8620987"
         y="0" />
    </clipPath>
    <clipPath
       clipPathUnits="userSpaceOnUse"
       id="clipPath2334">
      <rect
         style="fill:#333333;fill-opacity:1;stroke-width:0.996094"
         id="rect2336"
         width="513.03119"
         height="526.62622"
         x="-2.8620987"
         y="0" />
    </clipPath>
    <clipPath
       clipPathUnits="userSpaceOnUse"
       id="clipPath2338">
      <rect
         style="fill:#333333;fill-opacity:1;stroke-width:0.996094"
         id="rect2340"
         width="513.03119"
         height="526.62622"
         x="-2.8620987"
         y="0" />
    </clipPath>
    <clipPath
       clipPathUnits="userSpaceOnUse"
       id="clipPath2342">
      <rect
         style="fill:#333333;fill-opacity:1;stroke-width:0.996094"
         id="rect2344"
         width="513.03119"
         height="526.62622"
         x="-2.8620987"
         y="0" />
    </clipPath>
    <clipPath
       clipPathUnits="userSpaceOnUse"
       id="clipPath2346">
      <rect
         style="fill:#333333;fill-opacity:1;stroke-width:0.996094"
         id="rect2348"
         width="513.03119"
         height="526.62622"
         x="-2.8620987"
         y="0" />
    </clipPath>
    <clipPath
       clipPathUnits="userSpaceOnUse"
       id="clipPath2350">
      <rect
         style="fill:#333333;fill-opacity:1;stroke-width:0.996094"
         id="rect2352"
         width="513.03119"
         height="526.62622"
         x="-2.8620987"
         y="0" />
    </clipPath>
    <clipPath
       clipPathUnits="userSpaceOnUse"
       id="clipPath2354">
      <rect
         style="fill:#333333;fill-opacity:1;stroke-width:0.996094"
         id="rect2356"
         width="513.03119"
         height="526.62622"
         x="-2.8620987"
         y="0" />
    </clipPath>
    <clipPath
       clipPathUnits="userSpaceOnUse"
       id="clipPath2358">
      <rect
         style="fill:#333333;fill-opacity:1;stroke-width:1.33834"
         id="rect2360"
         width="689.30365"
         height="707.56976"
         x="-266.02502"
         y="-267.81076" />
    </clipPath>
    <clipPath
       clipPathUnits="userSpaceOnUse"
       id="clipPath2362">
      <rect
         style="fill:#333333;fill-opacity:1;stroke-width:0.996094"
         id="rect2364"
         width="513.03119"
         height="526.62622"
         x="-2.8620987"
         y="0" />
    </clipPath>
    <clipPath
       clipPathUnits="userSpaceOnUse"
       id="clipPath2366">
      <rect
         style="fill:#333333;fill-opacity:1;stroke-width:0.996094"
         id="rect2368"
         width="513.03119"
         height="526.62622"
         x="-2.8620987"
         y="0" />
    </clipPath>
    <clipPath
       clipPathUnits="userSpaceOnUse"
       id="clipPath2370">
      <rect
         style="fill:#333333;fill-opacity:1;stroke-width:0.996094"
         id="rect2372"
         width="513.03119"
         height="526.62622"
         x="-2.8620987"
         y="0" />
    </clipPath>
    <clipPath
       clipPathUnits="userSpaceOnUse"
       id="clipPath2374">
      <rect
         style="fill:#333333;fill-opacity:1;stroke-width:0.996094"
         id="rect2376"
         width="513.03119"
         height="526.62622"
         x="-2.8620987"
         y="0" />
    </clipPath>
    <clipPath
       clipPathUnits="userSpaceOnUse"
       id="clipPath2378">
      <rect
         style="fill:#333333;fill-opacity:1;stroke-width:0.996094"
         id="rect2380"
         width="513.03119"
         height="526.62622"
         x="-2.8620987"
         y="0" />
    </clipPath>
    <clipPath
       clipPathUnits="userSpaceOnUse"
       id="clipPath2382">
      <rect
         style="fill:#333333;fill-opacity:1;stroke-width:0.996094"
         id="rect2384"
         width="513.03119"
         height="526.62622"
         x="-2.8620987"
         y="0" />
    </clipPath>
    <clipPath
       clipPathUnits="userSpaceOnUse"
       id="clipPath2386">
      <rect
         style="fill:#333333;fill-opacity:1;stroke-width:0.996094"
         id="rect2388"
         width="513.03119"
         height="526.62622"
         x="-770.40613"
         y="268.29678" />
    </clipPath>
    <clipPath
       clipPathUnits="userSpaceOnUse"
       id="clipPath2390">
      <rect
         style="fill:#333333;fill-opacity:1;stroke-width:1.33834"
         id="rect2392"
         width="689.30365"
         height="707.56976"
         x="-277.45538"
         y="-19.917002" />
    </clipPath>
    <clipPath
       clipPathUnits="userSpaceOnUse"
       id="clipPath2394">
      <rect
         style="fill:#333333;fill-opacity:1;stroke-width:0.996094"
         id="rect2396"
         width="513.03119"
         height="526.62622"
         x="-2.8620987"
         y="0" />
    </clipPath>
    <clipPath
       clipPathUnits="userSpaceOnUse"
       id="clipPath2398">
      <rect
         style="fill:#333333;fill-opacity:1;stroke-width:0.996094"
         id="rect2400"
         width="513.03119"
         height="526.62622"
         x="-2.8620987"
         y="0" />
    </clipPath>
    <clipPath
       clipPathUnits="userSpaceOnUse"
       id="clipPath2402">
      <rect
         style="fill:#333333;fill-opacity:1;stroke-width:1.33834"
         id="rect2404"
         width="689.30365"
         height="707.56976"
         x="874.85687"
         y="-110.03612" />
    </clipPath>
    <clipPath
       clipPathUnits="userSpaceOnUse"
       id="clipPath2406">
      <rect
         style="fill:#333333;fill-opacity:1;stroke-width:0.996094"
         id="rect2408"
         width="513.03119"
         height="526.62622"
         x="-2.8620987"
         y="0" />
    </clipPath>
    <clipPath
       clipPathUnits="userSpaceOnUse"
       id="clipPath2410">
      <rect
         style="fill:#333333;fill-opacity:1;stroke-width:0.996094"
         id="rect2412"
         width="513.03119"
         height="526.62622"
         x="-2.8620987"
         y="0" />
    </clipPath>
    <clipPath
       clipPathUnits="userSpaceOnUse"
       id="clipPath2414">
      <rect
         style="fill:#333333;fill-opacity:1;stroke-width:0.996094"
         id="rect2416"
         width="513.03119"
         height="526.62622"
         x="-673.75494"
         y="72.85714" />
    </clipPath>
    <clipPath
       clipPathUnits="userSpaceOnUse"
       id="clipPath2418">
      <rect
         style="fill:#333333;fill-opacity:1;stroke-width:0.87579"
         id="rect2420"
         width="395.04221"
         height="528.69141"
         x="55.732769"
         y="215.265" />
    </clipPath>
    <clipPath
       clipPathUnits="userSpaceOnUse"
       id="clipPath2422">
      <rect
         style="fill:#333333;fill-opacity:1;stroke-width:0.996094"
         id="rect2424"
         width="513.03119"
         height="526.62622"
         x="-2.8620987"
         y="251.14919" />
    </clipPath>
    <clipPath
       clipPathUnits="userSpaceOnUse"
       id="clipPath2426">
      <rect
         style="fill:#333333;fill-opacity:1;stroke-width:0.87579"
         id="rect2428"
         width="395.04221"
         height="528.69141"
         x="55.732769"
         y="215.265" />
    </clipPath>
    <clipPath
       clipPathUnits="userSpaceOnUse"
       id="clipPath2430">
      <rect
         style="fill:#333333;fill-opacity:1;stroke-width:1"
         id="rect2432"
         width="515.04309"
         height="528.69141"
         x="-2.8733227"
         y="252.13408" />
    </clipPath>
    <clipPath
       clipPathUnits="userSpaceOnUse"
       id="clipPath2434">
      <rect
         style="fill:#333333;fill-opacity:1;stroke-width:0.996094"
         id="rect2436"
         width="513.03119"
         height="526.62622"
         x="-2.8620987"
         y="251.14919" />
    </clipPath>
    <clipPath
       clipPathUnits="userSpaceOnUse"
       id="clipPath2438">
      <rect
         style="fill:#333333;fill-opacity:1;stroke-width:1"
         id="rect2440"
         width="515.04309"
         height="528.69141"
         x="-2.8733227"
         y="252.13408" />
    </clipPath>
    <clipPath
       clipPathUnits="userSpaceOnUse"
       id="clipPath2442">
      <rect
         style="fill:#333333;fill-opacity:1;stroke-width:0.87579"
         id="rect2444"
         width="395.04221"
         height="528.69141"
         x="55.732769"
         y="215.265" />
    </clipPath>
    <clipPath
       clipPathUnits="userSpaceOnUse"
       id="clipPath2446">
      <rect
         style="fill:#333333;fill-opacity:1;stroke-width:0.996094"
         id="rect2448"
         width="513.03119"
         height="526.62622"
         x="-2.8620985"
         y="251.15016" />
    </clipPath>
    <clipPath
       clipPathUnits="userSpaceOnUse"
       id="clipPath2422-6">
      <rect
         style="fill:#333333;fill-opacity:1;stroke-width:0.996094"
         id="rect2424-0"
         width="513.03119"
         height="526.62622"
         x="-2.8620987"
         y="251.14919" />
    </clipPath>
    <clipPath
       clipPathUnits="userSpaceOnUse"
       id="clipPath2322-7">
      <rect
         style="fill:#333333;fill-opacity:1;stroke-width:1.33834"
         id="rect2324-0"
         width="689.30365"
         height="707.56976"
         x="84.875755"
         y="-269.73352" />
    </clipPath>
  </defs>
  <sodipodi:namedview
     pagecolor="#ffffff"
     bordercolor="#666666"
     borderopacity="1"
     objecttolerance="10"
     gridtolerance="10"
     guidetolerance="10"
     inkscape:pageopacity="0"
     inkscape:pageshadow="2"
     inkscape:window-width="2560"
     inkscape:window-height="1377"
     id="namedview132"
     showgrid="false"
     inkscape:zoom="0.69605824"
     inkscape:cx="735.09118"
     inkscape:cy="277.48845"
     inkscape:window-x="-8"
     inkscape:window-y="-8"
     inkscape:window-maximized="1"
     inkscape:current-layer="Capa_1"
     inkscape:document-rotation="0"
     fit-margin-top="0"
     fit-margin-left="0"
     fit-margin-right="0"
     fit-margin-bottom="0" />
  <linearGradient
     id="SVGID_1_"
     gradientTransform="rotate(180,279.349,-387.3905)"
     gradientUnits="userSpaceOnUse"
     x1="206.63901"
     x2="206.63901"
     y1="-1224.396"
     y2="-1167.894">
    <stop
       offset="0"
       stop-color="#ffce47"
       id="stop2" />
    <stop
       offset="1"
       stop-color="#ff9356"
       id="stop4" />
  </linearGradient>
  <linearGradient
     id="lg1">
    <stop
       offset="0"
       stop-color="#ff755c"
       id="stop7" />
    <stop
       offset="1"
       stop-color="#ff4181"
       id="stop9" />
  </linearGradient>
  <linearGradient
     id="SVGID_2_"
     gradientTransform="rotate(180,279.349,-387.3905)"
     gradientUnits="userSpaceOnUse"
     x1="400.75699"
     x2="400.75699"
     xlink:href="#lg1"
     y1="-1235.691"
     y2="-1202.241" />
  <linearGradient
     id="SVGID_3_"
     gradientTransform="rotate(180,279.349,-387.3905)"
     gradientUnits="userSpaceOnUse"
     x1="245.35699"
     x2="245.35699"
     y1="-1231.347"
     y2="-1155.303">
    <stop
       offset="0"
       stop-color="#e4e08e"
       id="stop13" />
    <stop
       offset="1"
       stop-color="#6fa953"
       id="stop15" />
  </linearGradient>
  <linearGradient
     id="lg2">
    <stop
       offset="0"
       stop-color="#ff4181"
       id="stop18" />
    <stop
       offset="1"
       stop-color="#843561"
       id="stop20" />
  </linearGradient>
  <linearGradient
     id="SVGID_4_"
     gradientTransform="rotate(180,279.349,-387.3905)"
     gradientUnits="userSpaceOnUse"
     x1="362.04001"
     x2="362.04001"
     xlink:href="#lg2"
     y1="-1212.2321"
     y2="-1142.8521" />
  <linearGradient
     id="SVGID_5_"
     gradientTransform="rotate(180,279.349,-387.3905)"
     gradientUnits="userSpaceOnUse"
     x1="303.698"
     x2="303.698"
     y1="-1245.248"
     y2="-1169.224">
    <stop
       offset="0"
       stop-color="#7acbff"
       id="stop24" />
    <stop
       offset="1"
       stop-color="#45a2e0"
       id="stop26" />
  </linearGradient>
  <linearGradient
     id="SVGID_6_"
     gradientTransform="rotate(180,279.349,-387.3905)"
     gradientUnits="userSpaceOnUse"
     x1="226.244"
     x2="226.244"
     y1="-1175.306"
     y2="-1146.9301">
    <stop
       offset="0"
       stop-color="#ff9356"
       stop-opacity="0"
       id="stop29" />
    <stop
       offset="1"
       stop-color="#ff755c"
       id="stop31" />
  </linearGradient>
  <linearGradient
     id="SVGID_7_"
     gradientTransform="rotate(180,279.349,-387.3905)"
     gradientUnits="userSpaceOnUse"
     x1="263.52301"
     x2="263.52301"
     y1="-1178.89"
     y2="-1121.864">
    <stop
       offset="0"
       stop-color="#43765a"
       stop-opacity="0"
       id="stop34" />
    <stop
       offset="1"
       stop-color="#43765a"
       id="stop36" />
  </linearGradient>
  <linearGradient
     id="SVGID_8_"
     gradientTransform="rotate(180,279.349,-387.3905)"
     gradientUnits="userSpaceOnUse"
     x1="303.698"
     x2="303.698"
     y1="-1176.61"
     y2="-1095.105">
    <stop
       offset="0"
       stop-color="#174461"
       stop-opacity="0"
       id="stop39" />
    <stop
       offset="1"
       stop-color="#174461"
       id="stop41" />
  </linearGradient>
  <linearGradient
     id="lg3">
    <stop
       offset="0"
       stop-color="#843561"
       stop-opacity="0"
       id="stop44" />
    <stop
       offset="1"
       stop-color="#3a2f4d"
       id="stop46" />
  </linearGradient>
  <linearGradient
     id="SVGID_9_"
     gradientTransform="rotate(180,279.349,-387.3905)"
     gradientUnits="userSpaceOnUse"
     x1="343.87299"
     x2="343.87299"
     xlink:href="#lg3"
     y1="-1163.2321"
     y2="-1135.228" />
  <linearGradient
     id="SVGID_10_"
     gradientTransform="rotate(180,279.349,-387.3905)"
     gradientUnits="userSpaceOnUse"
     x1="381.15201"
     x2="381.15201"
     xlink:href="#lg3"
     y1="-1178.239"
     y2="-1129.99" />
  <linearGradient
     id="SVGID_11_"
     gradientUnits="userSpaceOnUse"
     x1="121.751"
     x2="180.937"
     xlink:href="#lg2"
     y1="277.40399"
     y2="315.452" />
  <linearGradient
     id="SVGID_12_"
     gradientUnits="userSpaceOnUse"
     x1="352.88901"
     x2="391.54199"
     xlink:href="#lg2"
     y1="285.75101"
     y2="344.93701" />
  <linearGradient
     id="SVGID_13_"
     gradientUnits="userSpaceOnUse"
     x1="215.442"
     x2="273.24399"
     y1="189.925"
     y2="189.925">
    <stop
       offset="0"
       stop-color="#edf5ff"
       id="stop53" />
    <stop
       offset="1"
       stop-color="#c7e9ff"
       id="stop55" />
  </linearGradient>
  <linearGradient
     id="lg4">
    <stop
       offset="0"
       stop-color="#7acbff"
       stop-opacity="0"
       id="stop58" />
    <stop
       offset="1"
       stop-color="#2f73a0"
       id="stop60" />
  </linearGradient>
  <linearGradient
     id="SVGID_14_"
     gradientUnits="userSpaceOnUse"
     x1="229.271"
     x2="101.537"
     xlink:href="#lg4"
     y1="174.242"
     y2="109.017" />
  <linearGradient
     id="SVGID_15_"
     gradientUnits="userSpaceOnUse"
     x1="332.49899"
     x2="225.379"
     xlink:href="#lg4"
     y1="249.506"
     y2="142.38499" />
  <linearGradient
     id="SVGID_16_"
     gradientUnits="userSpaceOnUse"
     x1="235.02699"
     x2="269.81799"
     y1="152.509"
     y2="187.3">
    <stop
       offset="0"
       stop-color="#fff"
       id="stop65" />
    <stop
       offset="1"
       stop-color="#edf5ff"
       id="stop67" />
  </linearGradient>
  <linearGradient
     id="lg5">
    <stop
       offset="0"
       stop-color="#dfdfdf"
       id="stop70" />
    <stop
       offset="1"
       stop-color="#9da6ac"
       id="stop72" />
  </linearGradient>
  <linearGradient
     id="SVGID_17_"
     gradientUnits="userSpaceOnUse"
     x1="229.468"
     x2="293.224"
     xlink:href="#lg5"
     y1="146.47501"
     y2="210.23" />
  <linearGradient
     id="SVGID_18_"
     gradientTransform="matrix(-0.972,0.236,-0.236,-0.972,-673.74,-613.29)"
     gradientUnits="userSpaceOnUse"
     x1="-738.888"
     x2="-684.23401"
     xlink:href="#lg5"
     y1="-1004.307"
     y2="-949.65302" />
  <linearGradient
     id="SVGID_19_"
     gradientUnits="userSpaceOnUse"
     x1="255"
     x2="255"
     xlink:href="#lg4"
     y1="308.29199"
     y2="340.95499" />
  <linearGradient
     id="SVGID_20_"
     gradientTransform="rotate(90,-384.279,-248.737)"
     gradientUnits="userSpaceOnUse"
     x1="216.244"
     x2="240.808"
     xlink:href="#lg1"
     y1="-888.01599"
     y2="-888.01599" />
  <g
     id="g1297"
     transform="translate(1.8433599,-239.66756)">
    <g
       id="g2310"
       transform="translate(681.85015,-49.596872)"
       clip-path="url(#clipPath2414)">
      <path
         d="m -604.78932,367.39452 c 2.08746,-34.51283 30.73331,-61.8591 65.77236,-61.8591 28.25627,0 52.35797,17.7899 61.72246,42.77833 24.33428,0.29364 43.97325,20.09833 43.97325,44.50239 0,24.58722 -19.93261,44.51983 -44.51983,44.51983 -10.29192,0 -115.15323,0 -125.72716,0 -19.32207,0 -34.98672,-15.66465 -34.98672,-34.98672 0,-18.91213 15.0105,-34.30931 33.76564,-34.95473 z m 0,0"
         fill="#f0f5f7"
         id="path1615"
         style="stroke-width:0.744272" />
      <path
         d="m -433.32125,392.81905 c 0,17.787 -10.44019,33.14347 -25.52338,40.26932 2.71833,-5.75941 4.24178,-12.19912 4.24178,-18.99353 0,-24.40407 -19.63607,-44.21166 -43.97035,-44.50239 -9.3674,-24.99135 -33.46619,-42.77834 -61.72536,-42.77834 -12.74279,0 -24.64247,3.6167 -34.72506,9.88489 11.62929,-18.70862 32.36141,-31.16068 56.00666,-31.16068 28.25336,0 52.35797,17.787 61.71955,42.77252 24.33719,0.29655 43.97616,20.10414 43.97616,44.50821 z m 0,0"
         fill="#dde9ed"
         id="path1617"
         style="stroke-width:0.744272" />
    </g>
    <g
       id="g1796"
       transform="matrix(0.74427458,0,0,0.74427458,205.92781,54.14259)"
       clip-path="url(#clipPath2390)">
      <path
         d="m 418.56641,342.79297 c -3.15625,-52.17969 -46.46875,-93.52344 -99.44141,-93.52344 -42.72656,0 -79.16406,26.89453 -93.32422,64.67188 -36.78906,0.44531 -66.48047,30.39453 -66.48047,67.28906 0,37.17578 30.13281,67.30859 67.3086,67.30859 h 190.09375 c 29.21093,0 52.89453,-23.68359 52.89453,-52.89453 0,-28.59766 -22.69141,-51.875 -51.05078,-52.85156 z m 0,0"
         fill="#f0f5f7"
         id="path1643" />
      <path
         d="m 469.62109,395.64062 c 0,29.21485 -23.6875,52.90235 -52.90234,52.90235 h -4.09766 c 3.83594,-7.32422 6.00782,-15.66016 6.00782,-24.4961 0,-28.59375 -22.69141,-51.875 -51.05079,-52.85546 -3.15625,-52.17579 -46.47265,-93.52344 -99.44921,-93.52344 -7.14453,0 -14.10938,0.75 -20.82032,2.17969 18.125,-18.84375 43.59766,-30.57813 71.81641,-30.57813 52.97656,0 96.28906,41.33984 99.44531,93.52734 28.35938,0.96875 51.05078,24.25 51.05078,52.84375 z m 0,0"
         fill="#dde9ed"
         id="path1645" />
      <path
         d="m 392.19141,336.9375 c -3.48829,0 -6.65235,-2.38281 -7.50391,-5.92188 -0.89453,-3.71875 -2.11719,-7.38671 -3.63672,-10.89843 -1.69531,-3.91797 0.10547,-8.46485 4.02344,-10.16016 3.91797,-1.69531 8.46484,0.10938 10.16015,4.02344 1.8711,4.32812 3.375,8.84375 4.47657,13.42187 1,4.15235 -1.5586,8.32032 -5.70703,9.32032 -0.60547,0.14453 -1.21485,0.21484 -1.8125,0.21484 z m 0,0"
         fill="#f0f5f7"
         id="path1647" />
      <path
         d="m 373.37109,302.57812 c -2.03125,0 -4.05859,-0.79687 -5.57422,-2.3789 -12.86718,-13.40625 -30.15234,-20.78906 -48.67187,-20.78906 -4.26563,0 -7.72656,-3.45703 -7.72656,-7.72657 0,-4.26562 3.46093,-7.72265 7.72656,-7.72265 22.76562,0 44.01172,9.07031 59.82031,25.54297 2.95313,3.07422 2.85547,7.96875 -0.22265,10.92187 -1.5,1.4375 -3.42578,2.15235 -5.35157,2.15234 z m 0,0"
         fill="#f0f5f7"
         id="path1649" />
      <path
         d="m -21.189317,336.16953 c -3.332679,1.03025 -7.059345,-0.31177 -8.918165,-3.44146 -1.952942,-3.28866 -4.204375,-6.43189 -6.693291,-9.33817 -2.776838,-3.24249 -2.39929,-8.11838 0.843199,-10.89522 3.242489,-2.77684 8.119533,-2.39555 10.895216,0.8432 3.065922,3.58242 5.836405,7.45244 8.240962,11.50099 2.181768,3.67177 0.968297,8.40948 -2.699728,10.59009 -0.535774,0.31691 -1.097204,0.56406 -1.668193,0.74057 z m 0,0"
         fill="#f0f5f7"
         id="path1647-5"
         style="stroke-width:1" />
      <path
         d="m -47.685637,300.80649 c -2.705149,2.20234 -6.66326,2.35214 -9.55805,0.14525 -3.041551,-2.3191 -6.3055,-4.39165 -9.701034,-6.15561 -3.788335,-1.96802 -5.262533,-6.63102 -3.294513,-10.41935 1.968018,-3.78834 6.633486,-5.2595 10.419356,-3.29451 4.183604,2.17509 8.200833,4.72744 11.945517,7.58226 3.397102,2.58877 4.044395,7.43639 1.458663,10.83102 -0.378283,0.49435 -0.806463,0.9336 -1.269939,1.31094 z m 0,0"
         fill="#f0f5f7"
         id="path1647-5-7"
         style="stroke-width:1" />
      <path
         d="m -47.564019,303.81208 c -2.70515,2.20234 -6.66326,2.35214 -9.55805,0.14525 -3.04155,-2.3191 -6.3055,-4.39165 -9.70103,-6.15561 -3.78834,-1.96802 -5.26254,-6.63102 -3.29452,-10.41935 1.96802,-3.78834 6.63349,-5.2595 10.41936,-3.29451 4.1836,2.17509 8.20083,4.72744 11.94552,7.58226 3.3971,2.58877 4.04439,7.43639 1.45866,10.83102 -0.37828,0.49435 -0.80646,0.9336 -1.26994,1.31094 z m 0,0"
         fill="#f0f5f7"
         id="path1647-5-7-0"
         style="stroke-width:1" />
    </g>
    <g
       id="g1195"
       transform="translate(-124.12833,-6.77453)">
      <g
         id="g2306"
         transform="translate(914.09658,-203.54843)"
         clip-path="url(#clipPath2386)">
        <path
           d="m -592.70649,542.82526 c 1.68044,-27.76493 24.72678,-49.76174 52.91327,-49.76174 22.73526,0 42.12129,14.30985 49.65707,34.41108 19.57791,0.23839 35.3763,16.17052 35.3763,35.80367 0,19.78142 -16.03389,35.81531 -35.8153,35.81531 -8.28006,0 -92.63893,0 -101.14866,0 -15.54255,0 -28.14579,-12.60034 -28.14579,-28.14579 0,-15.21401 12.07411,-27.60211 27.16311,-28.12253 z m 0,0"
           fill="#f0f5f7"
           id="path1651"
           style="stroke-width:0.744272" />
        <path
           d="m -454.75985,563.28118 c 0,19.60989 -15.76932,35.53911 -35.32106,35.80659 5.86116,-6.38158 9.43717,-14.88258 9.43717,-24.22091 0,-19.63024 -15.79548,-35.56527 -35.37921,-35.80368 -7.53287,-20.09831 -26.91889,-34.41397 -49.65706,-34.41397 -2.68637,0 -5.32331,0.20351 -7.90501,0.59019 9.1726,-7.60556 20.94726,-12.17297 33.7918,-12.17297 22.73526,0 42.12129,14.30694 49.65416,34.41108 19.58373,0.2384 35.37921,16.16761 35.37921,35.80367 z m 0,0"
           fill="#dde9ed"
           id="path1653"
           style="stroke-width:0.744272" />
      </g>
      <g
         id="g1187"
         transform="translate(122.28497,164.14513)">
        <path
           d="m 241.75535,301.46191 c 2.08746,-34.51283 30.73332,-61.8591 65.77237,-61.8591 28.25626,0 52.35796,17.7899 61.72246,42.77833 24.33428,0.29364 43.97325,20.09833 43.97325,44.50239 0,24.58722 -19.93262,44.51984 -44.51984,44.51984 -10.29192,0 -115.15323,0 -125.72716,0 -19.32207,0 -34.98672,-15.66465 -34.98672,-34.98673 0,-18.91213 15.0105,-34.30931 33.76564,-34.95473 z m 0,0"
           fill="#f0f5f7"
           id="path1615-7"
           style="stroke-width:0.744272"
           clip-path="url(#clipPath2382)"
           transform="translate(2.8620988,-138.64449)" />
        <path
           d="m 413.22343,326.88644 c 0,17.787 -10.44019,33.14348 -25.52338,40.26932 2.71833,-5.7594 4.24177,-12.19912 4.24177,-18.99352 0,-24.40408 -19.63606,-44.21167 -43.97034,-44.5024 -9.36741,-24.99135 -33.46619,-42.77834 -61.72536,-42.77834 -12.7428,0 -24.64248,3.6167 -34.72507,9.88489 11.62929,-18.70862 32.36142,-31.16068 56.00667,-31.16068 28.25335,0 52.35796,17.787 61.71954,42.77252 24.3372,0.29655 43.97617,20.10414 43.97617,44.50821 z m 0,0"
           fill="#dde9ed"
           id="path1617-4"
           style="stroke-width:0.744272"
           clip-path="url(#clipPath2378)"
           transform="translate(2.8620988,-138.64449)" />
      </g>
    </g>
    <g
       id="g1199"
       transform="translate(-1.84336,157.3706)">
      <path
         d="m -19.411166,302.89297 c 2.08746,-34.51283 30.73331,-61.8591 65.772367,-61.8591 28.25626,0 52.35796,17.7899 61.722459,42.77833 24.33428,0.29364 43.97325,20.09833 43.97325,44.50239 0,24.58722 -19.93262,44.51984 -44.51984,44.51984 -10.291919,0 -115.1532261,0 -125.727156,0 -19.32207,0 -34.98672,-15.66465 -34.98672,-34.98673 0,-18.91213 15.0105,-34.30931 33.76564,-34.95473 z m 0,0"
         fill="#f0f5f7"
         id="path1615-3"
         style="stroke-width:0.744272"
         clip-path="url(#clipPath2346)"
         transform="translate(2.8620988,-138.64449)" />
      <path
         d="m 152.05691,328.3175 c 0,17.787 -10.44019,33.14348 -25.52338,40.26932 2.71833,-5.7594 4.24177,-12.19912 4.24177,-18.99352 0,-24.40408 -19.63606,-44.21167 -43.970339,-44.5024 -9.36741,-24.99135 -33.46619,-42.77834 -61.725367,-42.77834 -12.74279,0 -24.64247011,3.6167 -34.7250601,9.88489 11.62929,-18.70862 32.3614101,-31.16068 56.0066671,-31.16068 28.25335,0 52.35796,17.787 61.719539,42.77252 24.3372,0.29655 43.97617,20.10414 43.97617,44.50821 z m 0,0"
         fill="#dde9ed"
         id="path1617-0"
         style="stroke-width:0.744272"
         clip-path="url(#clipPath2342)"
         transform="translate(2.8620988,-138.64449)" />
    </g>
  </g>
</svg>
