<?xml version="1.0" encoding="UTF-8" standalone="no"?>
<svg
   xmlns:dc="http://purl.org/dc/elements/1.1/"
   xmlns:cc="http://creativecommons.org/ns#"
   xmlns:rdf="http://www.w3.org/1999/02/22-rdf-syntax-ns#"
   xmlns:svg="http://www.w3.org/2000/svg"
   xmlns="http://www.w3.org/2000/svg"
   xmlns:sodipodi="http://sodipodi.sourceforge.net/DTD/sodipodi-0.dtd"
   xmlns:inkscape="http://www.inkscape.org/namespaces/inkscape"
   width="2560.0px"
   height="1600.0px"
   viewBox="0 0 2560.0 1600.0"
   version="1.1"
   id="SVGRoot"
   sodipodi:docname="HeroImage.svg"
   inkscape:version="1.0.1 (3bc2e813f5, 2020-09-07)">
  <defs
     id="defs10" />
  <sodipodi:namedview
     id="base"
     pagecolor="#ffffff"
     bordercolor="#666666"
     borderopacity="1.0"
     inkscape:pageopacity="0.0"
     inkscape:pageshadow="2"
     inkscape:zoom="0.49497475"
     inkscape:cx="1056.8348"
     inkscape:cy="1102.3563"
     inkscape:document-units="px"
     inkscape:current-layer="layer1"
     inkscape:document-rotation="0"
     showgrid="false"
     inkscape:window-width="2560"
     inkscape:window-height="1377"
     inkscape:window-x="-8"
     inkscape:window-y="-8"
     inkscape:window-maximized="1" />
  <metadata
     id="metadata13">
    <rdf:RDF>
      <cc:Work
         rdf:about="">
        <dc:format>image/svg+xml</dc:format>
        <dc:type
           rdf:resource="http://purl.org/dc/dcmitype/StillImage" />
        <dc:title></dc:title>
      </cc:Work>
    </rdf:RDF>
  </metadata>
  <g
     inkscape:label="Layer 1"
     inkscape:groupmode="layer"
     id="layer1">
    <g
       id="g217"
       transform="matrix(0.67259758,0,0,0.67259758,2322.1913,1433.2573)">
      <path
         style="fill:#deefdd"
         d="m 224,344.014 c 91.806,0 168.451,16.119 187.402,37.647 l -72.776,-105.819 -5.25,1.297 c -66.625,16.406 -152.141,16.406 -218.766,0 l -5.25,-1.297 -73.949,107.128 h 0.105 C 52.45,360.789 130.341,344.014 224,344.014 Z"
         id="path102" />
      <ellipse
         style="fill:#7f8fa0"
         cx="224.00101"
         cy="199.98599"
         rx="224"
         ry="96"
         id="ellipse104" />
      <path
         style="fill:#738394"
         d="M 224,267.761 C 111.294,267.761 18.296,232.051 2.594,185.612 0.92,190.31 0,195.113 0,200.014 c 0,53.019 100.288,96 224,96 123.712,0 224,-42.981 224,-96 0,-4.902 -0.92,-9.705 -2.594,-14.402 -15.701,46.438 -108.7,82.149 -221.406,82.149 z"
         id="path106" />
      <path
         style="fill:#a6b5c8"
         d="m 96.972,120.983 c -0.558,5.056 -0.909,10.16 -0.829,15.346 0.074,4.813 2.54,9.364 6.402,12.238 27.543,20.499 58.434,35.448 121.456,35.448 63.022,0 93.913,-14.95 121.457,-35.448 3.86,-2.873 6.326,-7.424 6.399,-12.235 0.079,-5.185 -0.274,-10.29 -0.835,-15.35 -36.108,-10.68 -79.831,-16.967 -127.022,-16.967 -47.193,-0.001 -90.919,6.287 -127.028,16.968 z"
         id="path108" />
      <path
         style="fill:#7f8fa0"
         d="m 346.355,147.518 c -15.58,-11.824 -64.203,-20.504 -122.354,-20.504 -58.15,0 -106.774,8.68 -122.354,20.505 0.348,0.31 0.522,0.767 0.898,1.047 27.543,20.499 58.434,35.448 121.456,35.448 63.022,0 93.913,-14.95 121.457,-35.448 0.375,-0.279 0.549,-0.738 0.897,-1.048 z"
         id="path110" />
      <path
         style="fill:#8d9dae"
         d="m 346.355,147.518 c -15.58,-11.824 -64.203,-20.504 -122.354,-20.504 -58.15,0 -106.774,8.68 -122.354,20.505 0.348,0.31 0.522,0.767 0.898,1.047 27.543,20.499 58.434,35.448 121.456,35.448 63.022,0 93.913,-14.95 121.457,-35.448 0.375,-0.279 0.549,-0.738 0.897,-1.048 z"
         id="path112" />
      <path
         style="fill:#cddcf0"
         d="m 224,104.014 c 47.19,0 90.913,6.287 127.022,16.967 C 344.159,59.014 290.779,8.014 224,8.014 157.47,8.014 103.835,58.812 96.972,120.983 133.081,110.302 176.807,104.014 224,104.014 Z"
         id="path114" />
      <path
         style="fill:#acc6b9"
         d="m 224,184.014 c 18.03,0 33.206,-1.34 46.65,-3.567 5.751,-13.656 9.35,-29.322 9.35,-45.433 0,-30.875 -25.125,-56 -56,-56 -30.875,0 -56,25.125 -56,56 0,16.11 3.598,31.776 9.35,45.433 13.444,2.227 28.62,3.567 46.65,3.567 z"
         id="path116" />
      <g
         id="g124">
	<path
   style="fill:#a6b5c8"
   d="m 224,200.014 c -17.673,0 -32,14.326 -32,32 0,17.674 14.327,32 32,32 17.673,0 32,-14.326 32,-32 0,-17.674 -14.326,-32 -32,-32 z"
   id="path118" />

	<path
   style="fill:#a6b5c8"
   d="m 80,176.014 c -17.673,0 -32,14.326 -32,32 0,17.674 14.327,32 32,32 17.673,0 32,-14.326 32,-32 0,-17.674 -14.326,-32 -32,-32 z"
   id="path120" />

	<path
   style="fill:#a6b5c8"
   d="m 368,176.014 c -17.673,0 -32,14.326 -32,32 0,17.674 14.327,32 32,32 17.673,0 32,-14.326 32,-32 0,-17.674 -14.326,-32 -32,-32 z"
   id="path122" />

</g>
      <ellipse
         transform="matrix(-0.853,-0.522,0.522,-0.853,289.7775,376.4356)"
         cx="197.909"
         cy="147.403"
         rx="20.257"
         ry="10.128"
         id="ellipse126" />
      <ellipse
         transform="matrix(-0.5219,-0.853,0.853,-0.5219,254.7423,437.6083)"
         cx="250.008"
         cy="147.414"
         rx="10.128"
         ry="20.256001"
         id="ellipse128" />
      <path
         style="fill:#dce7f6"
         d="m 219.53,79.466 c -3.406,-14.012 -15.948,-24.452 -31.009,-24.452 -17.673,0 -32,14.326 -32,32 0,11.631 6.267,21.714 15.548,27.316 7.721,-19.305 25.875,-33.12 47.461,-34.864 z"
         id="path130" />
      <path
         style="fill:#acc6b9"
         d="m 220.521,87.014 c 0,-2.614 -0.4,-5.116 -0.991,-7.548 -21.586,1.744 -39.74,15.558 -47.461,34.864 4.822,2.91 10.41,4.683 16.452,4.683 17.673,10e-4 32,-14.326 32,-31.999 z"
         id="path132" />
      <path
         style="fill:#c5d8d0"
         d="m 220.521,87.014 c 0,-2.614 -0.4,-5.116 -0.991,-7.548 -21.586,1.744 -39.74,15.558 -47.461,34.864 4.822,2.91 10.41,4.683 16.452,4.683 17.673,10e-4 32,-14.326 32,-31.999 z"
         id="path134" />
      <ellipse
         style="fill:#c7e4c7"
         cx="224.00101"
         cy="391.98599"
         rx="192"
         ry="48"
         id="ellipse136" />
      <path
         style="fill:#5886c5"
         d="m 224,216.014 c 8.822,0 16,7.178 16,16 0,8.822 -7.178,16 -16,16 -8.822,0 -16,-7.178 -16,-16 0,-8.822 7.178,-16 16,-16"
         id="path138" />
      <path
         style="fill:#ee6058"
         d="m 80,192.014 c 8.822,0 16,7.178 16,16 0,8.822 -7.178,16 -16,16 -8.822,0 -16,-7.178 -16,-16 0,-8.822 7.178,-16 16,-16"
         id="path140" />
      <path
         style="fill:#eb7a25"
         d="m 368,192.014 c 8.822,0 16,7.178 16,16 0,8.822 -7.178,16 -16,16 -8.822,0 -16,-7.178 -16,-16 0,-8.822 7.178,-16 16,-16"
         id="path142" />
      <g
         id="g144">
</g>
      <g
         id="g146">
</g>
      <g
         id="g148">
</g>
      <g
         id="g150">
</g>
      <g
         id="g152">
</g>
      <g
         id="g154">
</g>
      <g
         id="g156">
</g>
      <g
         id="g158">
</g>
      <g
         id="g160">
</g>
      <g
         id="g162">
</g>
      <g
         id="g164">
</g>
      <g
         id="g166">
</g>
      <g
         id="g168">
</g>
      <g
         id="g170">
</g>
      <g
         id="g172">
</g>
    </g>
    <g
       id="g375"
       transform="matrix(1.0148662,0,0,1.0148662,414.74151,295.54342)">
	<path
   style="fill:#e5646e"
   d="m 237.011,399.29 23.095,23.096 c 0,0 -19.503,35.115 -26.004,46.821 -1.661,3.217 -2.038,6.38 1.446,9.864 3.484,3.483 10.452,10.449 13.935,13.933 3.135,3.135 5.587,1.7 8.2,-0.913 22.786,-22.785 91.141,-91.142 91.141,-91.142 11.806,-11.823 11.759,-31.095 -0.042,-42.916 l -35.254,-35.258 z"
   id="path339" />

	<path
   style="fill:#857e87"
   d="m 111.941,295.031 c 5.769,-5.751 15.12,-5.753 20.889,0 l 39.845,36.415 36.123,39.556 c 5.768,5.756 5.828,15.031 0.061,20.784 l 0.325,-0.311 c -5.771,5.752 -15.19,5.82 -20.958,0.063 l -75.968,-75.963 c -5.766,-5.762 -5.765,-15.099 0,-20.852 z"
   id="path341" />

	<path
   style="fill:#ff8086"
   d="M 105.464,267.746 82.368,244.651 c 0,0 -35.116,19.503 -46.821,26.005 -3.217,1.66 -6.38,2.037 -9.864,-1.446 -3.483,-3.484 -10.45,-10.452 -13.933,-13.935 -3.135,-3.135 -1.7,-5.587 0.913,-8.2 22.786,-22.785 91.143,-91.141 91.143,-91.141 11.823,-11.806 31.094,-11.759 42.916,0.043 l 35.257,35.255 z"
   id="path343" />

	<path
   style="fill:#ff8086"
   d="m 442.474,195.939 c 0,0 80.438,-86.821 58.071,-192.081 l 0.072,0.07 C 395.18,-18.399 308.222,61.733 308.222,61.733 l 66.002,71.517 z"
   id="path345" />

	<g
   id="g351">
		<path
   style="fill:#e5646e"
   d="m 500.546,3.858 c 0.004,0.02 0.007,0.039 0.012,0.058 0.02,0.004 0.04,0.008 0.061,0.012 z"
   id="path347" />

		<path
   style="fill:#e5646e"
   d="m 500.557,3.917 c -21.983,-4.647 -43.156,-4.832 -62.91,-2.228 4.27,0.583 8.573,1.311 12.91,2.228 -0.004,-0.02 -0.007,-0.039 -0.012,-0.058 l 0.072,0.07 c -0.02,-0.004 -0.04,-0.008 -0.061,-0.012 14.78,69.67 -15.464,131.244 -37.598,164.912 l 29.515,27.11 c 10e-4,0 80.409,-86.789 58.084,-192.022 z"
   id="path349" />

	</g>

	<polyline
   style="fill:#f0eef0"
   points="442.474,195.939 237.892,400.174 103.66,265.941 308.222,61.733  "
   id="polyline353" />

	<path
   style="fill:#dfdde0"
   d="m 308.221,61.733 -15.009,14.983 87.932,87.901 c 11.777,11.773 11.77,30.866 -0.014,42.631 l -168.225,167.94 24.987,24.987 204.582,-204.235 z"
   id="path355" />

	<polygon
   style="fill:#ffd064"
   points="158.875,321.127 257.678,222.318 282.614,246.905 183.634,345.887 "
   id="polygon357" />

	<path
   style="fill:#ff8086"
   d="m 7.474,454.691 c -6.56,0 -9.938,-8.176 -5.299,-12.808 l 55.405,-55.33 c 6.83,-6.816 17.444,3.773 10.602,10.614 l -55.408,55.33 c -1.464,1.462 -3.382,2.194 -5.3,2.194 z"
   id="path359" />

	<path
   style="fill:#ff8086"
   d="m 7.965,504.017 c -6.559,0 -9.937,-8.175 -5.299,-12.807 l 79.857,-79.755 c 6.826,-6.817 17.446,3.777 10.6,10.614 l -79.859,79.754 c -1.463,1.462 -3.381,2.194 -5.299,2.194 z"
   id="path361" />

	<path
   style="fill:#ff8086"
   d="m 57.373,504.5 c -6.561,0.003 -9.937,-8.174 -5.302,-12.806 l 55.399,-55.336 c 6.825,-6.82 17.449,3.776 10.602,10.611 l -55.4,55.337 c -1.463,1.463 -3.382,2.194 -5.299,2.194 z"
   id="path363" />

	<path
   style="fill:#c3ddff"
   d="m 346.428,236.314 c -21.74,21.705 -57.002,21.707 -78.746,0.001 -21.752,-21.703 -21.753,-56.9 10e-4,-78.606 21.742,-21.704 57.005,-21.704 78.745,0.001 21.756,21.707 21.756,56.903 0,78.604 z"
   id="path365" />

	<path
   style="fill:#a4ccff"
   d="m 346.427,157.71 c -16.049,-16.023 -39.464,-20.202 -59.372,-12.568 7.059,2.707 13.681,6.886 19.372,12.568 21.757,21.707 21.757,56.902 0,78.604 -5.691,5.682 -12.314,9.862 -19.373,12.569 19.909,7.635 43.324,3.454 59.373,-12.569 21.757,-21.701 21.757,-56.897 0,-78.604 z"
   id="path367" />

	<path
   style="fill:#857e87"
   d="m 307.055,260.094 c -16.875,0 -32.739,-6.559 -44.671,-18.469 -11.94,-11.915 -18.517,-27.757 -18.517,-44.612 0,-16.853 6.576,-32.696 18.519,-44.61 11.929,-11.91 27.794,-18.47 44.67,-18.47 16.875,0 32.741,6.56 44.671,18.471 11.941,11.914 18.518,27.757 18.518,44.612 0,16.853 -6.577,32.695 -18.52,44.609 -11.93,11.909 -27.795,18.469 -44.67,18.469 z m 0,-111.162 c -12.872,0 -24.975,5.003 -34.072,14.087 -9.102,9.082 -14.115,21.154 -14.116,33.995 0,12.841 5.012,24.912 14.113,33.993 9.101,9.084 21.201,14.087 34.075,14.087 12.874,0 24.974,-5.002 34.074,-14.086 9.102,-9.082 14.116,-21.153 14.116,-33.993 0,-12.841 -5.012,-24.914 -14.114,-33.996 -9.102,-9.084 -21.201,-14.087 -34.076,-14.087 z"
   id="path369" />

	<path
   style="fill:#ffd064"
   d="m 150.382,353.654 c -0.07,-0.073 -0.147,-0.151 -0.221,-0.221 -21.808,-21.892 -56.284,-23.649 -80.132,-5.1 -4.559,3.802 -2.754,7.222 -0.141,9.834 l 75.76,75.76 c 2.613,2.612 6.033,4.418 9.834,-0.142 18.55,-23.847 16.791,-58.323 -5.1,-80.131 z"
   id="path371" />

	<path
   style="fill:#ffc250"
   d="m 150.382,353.654 c -0.07,-0.073 -0.147,-0.151 -0.221,-0.221 -10.935,-10.977 -25.056,-16.889 -39.424,-17.72 3.33,2.214 6.495,4.779 9.424,7.72 0.074,0.069 0.151,0.147 0.221,0.221 20.13,20.054 23.222,50.813 9.168,74.176 l 16.098,16.098 c 2.613,2.612 6.033,4.418 9.834,-0.142 18.55,-23.848 16.791,-58.324 -5.1,-80.132 z"
   id="path373" />

</g>
    <g
       id="g645"
       transform="matrix(0.29950555,0,0,0.29950555,74.820165,1335.4955)">
      <path
         d="m 427.94531,65.855469 c 0,34.250001 -27.76172,62.011721 -62.01172,62.011721 -34.24609,0 -62.01172,-27.76172 -62.01172,-62.011721 0,-34.246094 27.76563,-62.011719 62.01172,-62.011719 34.25,0 62.01172,27.765625 62.01172,62.011719 z m 0,0"
         fill="#2de0c7"
         id="path520" />
      <path
         d="m 427.94141,65.855469 c 0,34.250001 -27.76172,62.007811 -62.01172,62.007811 -4.8711,0 -9.59766,-0.55859 -14.14063,-1.62109 27.42969,-6.40625 47.85938,-31.007815 47.85938,-60.386721 0,-29.382813 -20.42969,-53.980469 -47.85938,-60.390625 4.54297,-1.0625 9.26953,-1.621094 14.14063,-1.621094 34.25,0 62.01172,27.761719 62.01172,62.011719 z m 0,0"
         fill="#00c2cc"
         id="path522" />
      <path
         d="m 463.12891,252.35156 c 0,111.26172 -90.1875,201.46094 -201.44922,201.46094 -61.89063,0 -117.25782,-27.91016 -154.21094,-71.82813 -22.1875,-26.37109 -37.738281,-58.51953 -44.070312,-93.85156 -0.910157,-5.08984 -1.636719,-10.25 -2.148438,-15.46094 -0.679688,-6.67968 -1.019531,-13.45703 -1.019531,-20.32031 0,-11.19922 0.910156,-22.17969 2.667969,-32.86719 0.820312,-4.98046 1.8125,-9.89062 3,-14.74218 C 87.28125,116.47266 166.82031,50.902344 261.67969,50.902344 c 28.1914,0 55.03125,5.789062 79.39062,16.242187 7.3086,3.136719 14.39844,6.699219 21.23828,10.648438 15.20313,8.789062 29.15235,19.5 41.51172,31.808591 3.92969,3.91016 7.69922,7.98047 11.30078,12.21094 22.39844,26.30078 38.16016,58.44141 44.66797,93.8125 2.19141,11.90625 3.33985,24.1875 3.33985,36.72656 z m 0,0"
         fill="#e667f9"
         id="path524" />
      <path
         d="m 415.12109,121.8125 c -1.21093,1.12891 -2.8125,1.87109 -4.58984,2 -0.10938,0.0117 -14.35938,1.21094 -37.58203,10.83984 -21.48828,8.91016 -55.25781,27.05078 -94.14844,62.90235 -1.44141,1.32812 -3.26172,1.98828 -5.08203,1.98828 -2.01953,0 -4.03906,-0.8086 -5.51953,-2.41797 -2.80078,-3.04297 -2.60938,-7.79297 0.42969,-10.59375 65.76953,-60.62891 118.30078,-74.05859 135.1914,-76.92969 3.92969,3.91016 7.69922,7.98047 11.30078,12.21094 z m 0,0"
         fill="#d82fea"
         id="path526" />
      <path
         d="m 239,234.97656 c -1.77734,0 -3.55859,-0.625 -4.98828,-1.89844 -3.09375,-2.7539 -3.36719,-7.49609 -0.61328,-10.58984 4.85937,-5.44922 9.8164,-10.80078 14.73828,-15.90234 2.875,-2.98047 7.625,-3.06641 10.60547,-0.1875 2.98047,2.875 3.0664,7.625 0.1875,10.60547 -4.78516,4.95703 -9.60547,10.16015 -14.32813,15.46484 -1.48437,1.66016 -3.53906,2.50781 -5.60156,2.50781 z m 0,0"
         fill="#d82fea"
         id="path528" />
      <path
         d="m 463.12891,252.35547 c 0,111.25781 -90.1875,201.45703 -201.44922,201.45703 -5.91797,0 -11.78907,-0.25781 -17.57813,-0.75781 103.00781,-8.92188 183.83985,-95.3711 183.83985,-200.69922 0,-12.54297 -1.15235,-24.82031 -3.33985,-36.73047 -16.22265,-88.08203 -89.75,-156.101562 -180.5,-163.960938 5.78906,-0.5 11.66016,-0.761718 17.57813,-0.761718 98.71875,0 180.85156,71.011716 198.10937,164.722656 2.19141,11.91016 3.33985,24.1875 3.33985,36.73047 z m 0,0"
         fill="#d82fea"
         id="path530" />
      <path
         d="m 161.26172,281.02344 c -24.22266,7.00781 -47.73047,8.98047 -66.492189,8.98047 -13.339843,0 -24.28125,-1 -31.371093,-1.8711 -0.910157,-5.08984 -1.636719,-10.25 -2.148438,-15.46094 5.839844,0.83985 17.980469,2.25 33.589844,2.25 17.671876,0 39.781246,-1.80859 62.249996,-8.30859 3.98047,-1.14062 8.14063,1.14844 9.28907,5.12891 1.15234,3.98047 -1.14063,8.13281 -5.11719,9.28125 z m 0,0"
         fill="#d82fea"
         id="path532" />
      <path
         d="m 463.12891,252.35547 c 0,18.67969 -2.53907,36.75781 -7.29688,53.91797 -23.57031,85.08203 -101.57031,147.53906 -194.15234,147.53906 -5.91797,0 -11.78907,-0.25 -17.57813,-0.75781 -14.38281,-1.24219 -28.32031,-4 -41.67969,-8.10938 -37.49218,-11.51172 -70.3125,-33.67969 -94.95312,-62.96094 45.46094,-60.4414 113.21094,-111.55078 210.97266,-113.28125 44.98828,-0.80078 80.83984,-12.80078 109.07031,-29.5 12.11719,-7.16015 22.83984,-15.1875 32.27734,-23.57812 2.19141,11.91016 3.33985,24.1875 3.33985,36.73047 z m 0,0"
         fill="#2de0c7"
         id="path534" />
      <path
         d="m 463.12891,252.35547 c 0,18.67969 -2.53907,36.75781 -7.29688,53.91797 -23.57031,85.08203 -101.57031,147.53906 -194.15234,147.53906 -5.91797,0 -11.78907,-0.25 -17.57813,-0.75781 103.00781,-8.92188 183.83985,-95.3711 183.83985,-200.69922 0,-4.42188 -0.14063,-8.80078 -0.42969,-13.15235 12.11719,-7.16015 22.83984,-15.1875 32.27734,-23.57812 2.19141,11.91016 3.33985,24.1875 3.33985,36.73047 z m 0,0"
         fill="#00c2cc"
         id="path536" />
      <path
         d="m 455.83203,306.27344 c -2.04297,7.35937 -4.49219,14.55859 -7.32031,21.55078 -2.01172,4.98047 -4.22266,9.85937 -6.6211,14.6289 -33.05078,66.03125 -101.33984,111.35938 -180.21093,111.35938 -5.91797,0 -11.78907,-0.25 -17.57813,-0.75781 -14.38281,-1.24219 -28.32031,-4 -41.67969,-8.11328 20.75782,-8.88672 43.23829,-24.54688 59.25782,-52.13672 29.9414,-51.58203 87.80078,-81.83203 158.91015,-86.35157 11.42188,-0.73828 23.19141,-0.80078 35.24219,-0.17968 z m 0,0"
         fill="#7e18ea"
         id="path538" />
      <path
         d="M 455.83203,306.27344 C 432.26172,391.35547 354.26172,453.8125 261.67969,453.8125 c -5.91797,0 -11.78907,-0.25 -17.57813,-0.75781 84.67969,-7.33203 154.36719,-67.0625 176.48828,-146.60157 11.42188,-0.73828 23.19141,-0.80078 35.24219,-0.17968 z m 0,0"
         fill="#5100cb"
         id="path540" />
      <path
         d="m 476.71875,75.714844 c -6.42969,15.46875 -17.9375,35.046876 -34.19922,58.187496 -33.03125,47 -82.32812,104 -138.80859,160.48047 -56.48047,56.49219 -113.48047,105.78125 -160.49219,138.82031 -23.13672,16.26172 -42.70703,27.76172 -58.179688,34.19141 -9.667968,4.01953 -17.738281,6.02735 -24.308593,6.02735 -6.21875,0 -11.089844,-1.79688 -14.699219,-5.41016 -14.011719,-14.00781 -0.542969,-48.70703 41.167969,-106.09766 0.949219,-1.3125 2.25,-2.22265 3.679687,-2.6914 2.570313,4.10156 5.28125,8.08984 8.121094,11.98047 -44.339844,61.10156 -45.621094,82.9414 -42.371094,86.19921 3,2.99219 22.832032,2.26954 77.972654,-36.46875 46.32032,-32.55859 102.60938,-81.26171 158.5,-137.15234 C 348.98828,227.89453 397.69922,171.59375 430.25,125.27344 469,70.144531 469.71875,50.304688 466.73047,47.3125 c -3.28125,-3.28125 -25.16016,-1.9375 -86.21094,42.359375 -4.14844,-3.039063 -8.41015,-5.917969 -12.78906,-8.617187 0.48828,-0.75 1.12109,-1.421876 1.87891,-1.980469 C 427.94922,36.421875 463.19141,22.5625 477.33203,36.703125 484.75,44.125 484.55078,56.882812 476.71875,75.714844 Z m 0,0"
         fill="#c5ee09"
         id="path542" />
      <path
         d="m 477.33203,468.01172 c -3.61328,3.61328 -8.48047,5.41015 -14.70312,5.41015 -6.57032,0 -14.64063,-2.00781 -24.29688,-6.02734 -15.48047,-6.42969 -35.05078,-17.92969 -58.19141,-34.19141 -47.01171,-33.03906 -104,-82.32812 -160.49218,-138.82031 C 163.17187,237.90234 113.87109,180.90234 80.839844,133.90234 64.582031,110.76172 53.070312,91.183594 46.640625,75.714844 38.808594,56.882812 38.609375,44.125 46.03125,36.703125 c 13.957031,-13.96875 48.539062,-0.601563 105.67969,40.878906 1.44922,1.0625 2.41015,2.53125 2.83984,4.140625 -4,2.511719 -7.91016,5.171875 -11.71094,7.960938 C 81.71875,45.324219 59.890625,44.054688 56.628906,47.3125 c -2.988281,2.992188 -2.257812,22.832031 36.480469,77.96094 32.550785,46.32031 81.261715,102.62109 137.152345,158.50781 55.88672,55.89062 112.17969,104.59375 158.5,137.15234 55.13672,38.73828 74.96875,39.46094 77.96875,36.46875 3.28125,-3.27734 1.9414,-25.16015 -42.37891,-86.21093 3.03906,-4.13672 5.91797,-8.41016 8.62891,-12.77735 0.75,0.46875 1.42969,1.09766 1.98828,1.86719 42.65234,58.35156 56.51172,93.58203 42.36328,107.73047 z m 0,0"
         fill="#edff85"
         id="path544" />
      <path
         d="m 101.18359,279.42187 c 0,19.10547 -15.488278,34.59375 -34.593746,34.59375 -19.109375,0 -34.597656,-15.48828 -34.597656,-34.59375 0,-19.10546 15.488281,-34.59375 34.597656,-34.59375 19.105468,0 34.593746,15.48829 34.593746,34.59375 z m 0,0"
         fill="#9bf2e5"
         id="path546" />
      <g
         fill="#2de0c7"
         id="g574">
        <path
           d="m 101.17969,279.42578 c 0,19.09766 -15.488284,34.58984 -34.589846,34.58984 -3.589844,0 -7.058594,-0.55078 -10.320313,-1.5625 14.0625,-4.39843 24.261719,-17.52734 24.261719,-33.02734 0,-15.51172 -10.199219,-28.64062 -24.261719,-33.04297 C 59.53125,245.375 63,244.82422 66.589844,244.82422 c 19.101562,0 34.589846,15.48828 34.589846,34.60156 z m 0,0"
           id="path548" />
        <path
           d="m 169.17969,17.617188 c -0.0117,0 -0.0234,0 -0.0352,0 -4.14453,-0.01953 -7.48437,-3.394532 -7.46484,-7.535157 l 0.0117,-2.617187 C 161.71094,3.324219 165.0625,0 169.22656,0 c 4.14063,0.0195312 7.48438,3.394531 7.46485,7.535156 l -0.0117,2.617188 c -0.0234,4.128906 -3.375,7.464844 -7.5,7.464844 z m 0,0"
           id="path550" />
        <path
           d="m 169.09766,44.253906 c -0.0156,0 -0.0273,0 -0.0391,0 -4.14062,-0.01953 -7.48437,-3.394531 -7.46484,-7.535156 l 0.0156,-2.617188 c 0.0195,-4.144531 3.35938,-7.5 7.53516,-7.464843 4.14063,0.01953 7.48438,3.394531 7.46484,7.539062 l -0.0156,2.617188 c -0.0195,4.128906 -3.37109,7.460937 -7.49609,7.460937 z m 0,0"
           id="path552" />
        <path
           d="m 183.76953,29.675781 c -0.0117,0 -0.0234,0 -0.0352,0 l -2.61718,-0.01563 c -4.14063,-0.01953 -7.48438,-3.390625 -7.46485,-7.53125 0.0195,-4.132812 3.375,-7.46875 7.5,-7.46875 h 0.0352 l 2.61719,0.01563 c 4.14062,0.01953 7.48437,3.390625 7.46484,7.535157 -0.0195,4.128906 -3.375,7.464843 -7.5,7.464843 z m 0,0"
           id="path554" />
        <path
           d="m 157.13281,29.59375 c -0.0117,0 -0.0234,0 -0.0352,0 l -2.61719,-0.01563 c -4.14453,-0.01953 -7.48438,-3.394531 -7.46485,-7.535156 0.0195,-4.128907 3.375,-7.464844 7.5,-7.464844 h 0.0352 l 2.62109,0.01563 c 4.14063,0.01953 7.48047,3.394531 7.46094,7.535156 -0.0195,4.128906 -3.375,7.464844 -7.5,7.464844 z m 0,0"
           id="path556" />
        <path
           d="m 22.164062,338.76172 c -0.01562,0 -0.02734,0 -0.03906,0 -4.140625,-0.0234 -7.484375,-3.39844 -7.464844,-7.53906 l 0.01563,-2.61719 c 0.01953,-4.12891 3.375,-7.46094 7.5,-7.46094 h 0.03516 c 4.144531,0.0195 7.484374,3.39453 7.464843,7.53516 l -0.01563,2.61719 c -0.01953,4.1289 -3.375,7.46484 -7.496094,7.46484 z m 0,0"
           id="path558" />
        <path
           d="m 22.082031,365.39844 c -0.01172,0 -0.02344,0 -0.03516,0 -4.144531,-0.0195 -7.484375,-3.39453 -7.464844,-7.53516 l 0.01172,-2.61719 c 0.01953,-4.13281 3.371094,-7.46484 7.496094,-7.46484 h 0.03906 c 4.140625,0.0195 7.480469,3.39062 7.464844,7.53516 l -0.01172,2.61718 c -0.02344,4.12891 -3.375,7.46485 -7.5,7.46485 z m 0,0"
           id="path560" />
        <path
           d="m 36.753906,350.81641 c -0.01172,0 -0.02344,0 -0.03516,0 l -2.617188,-0.0117 c -4.140624,-0.0195 -7.484374,-3.39453 -7.464843,-7.53516 0.01953,-4.14062 3.386719,-7.49609 7.535156,-7.46484 l 2.617187,0.0117 c 4.140626,0.0195 7.484376,3.39453 7.464844,7.53515 -0.01953,4.12891 -3.375,7.46485 -7.5,7.46485 z m 0,0"
           id="path562" />
        <path
           d="m 10.117188,350.73437 c -0.01172,0 -0.02344,0 -0.03516,0 l -2.617187,-0.0117 C 3.320312,350.70312 -0.0195312,347.32812 0,343.18359 c 0.0195312,-4.1289 3.375,-7.46093 7.5,-7.46093 h 0.035156 l 2.617188,0.0117 c 4.144531,0.0195 7.484375,3.39454 7.464844,7.53907 -0.01953,4.1289 -3.375,7.46093 -7.5,7.46093 z m 0,0"
           id="path564" />
        <path
           d="m 489.91016,353.38672 c -0.0117,0 -0.0234,0 -0.0352,0 -4.14453,-0.0195 -7.48438,-3.39453 -7.46875,-7.53516 l 0.0156,-2.61719 c 0.0195,-4.14062 3.35547,-7.46093 7.53516,-7.46484 4.14063,0.0195 7.48047,3.39453 7.46484,7.53516 l -0.0156,2.61718 c -0.0156,4.12891 -3.37109,7.46485 -7.49609,7.46485 z m 0,0"
           id="path566" />
        <path
           d="m 489.82812,380.02344 c -0.0156,0 -0.0273,0 -0.0391,0 -4.14062,-0.0195 -7.48437,-3.39453 -7.46484,-7.53516 l 0.0156,-2.61719 c 0.0195,-4.14453 3.42188,-7.51953 7.53516,-7.46484 4.14453,0.0195 7.48437,3.39453 7.46484,7.53906 l -0.0156,2.61719 c -0.0195,4.12891 -3.375,7.46094 -7.4961,7.46094 z m 0,0"
           id="path568" />
        <path
           d="m 504.5,365.44531 c -0.0117,0 -0.0234,0 -0.0352,0 l -2.61718,-0.0117 c -4.14063,-0.0234 -7.48438,-3.39453 -7.46485,-7.53515 0.0195,-4.13281 3.375,-7.46485 7.5,-7.46485 h 0.0352 l 2.61719,0.0117 c 4.14062,0.0195 7.48437,3.39063 7.46484,7.53516 -0.0195,4.1289 -3.375,7.46484 -7.5,7.46484 z m 0,0"
           id="path570" />
        <path
           d="m 477.86328,365.36328 c -0.0117,0 -0.0234,0 -0.0352,0 l -2.61718,-0.0156 c -4.14453,-0.0195 -7.48438,-3.39454 -7.46485,-7.53516 0.0195,-4.12891 3.375,-7.46484 7.5,-7.46484 h 0.0352 l 2.61719,0.0156 c 4.14453,0.0195 7.48437,3.39453 7.46484,7.53516 -0.0195,4.1289 -3.375,7.46484 -7.5,7.46484 z m 0,0"
           id="path572" />
      </g>
      <path
         d="m 142.79687,473.42578 c -0.0117,0 -0.0234,0 -0.0352,0 h -0.10547 c -4.14453,-0.0195 -7.48438,-3.39453 -7.46484,-7.53516 0.0195,-4.1289 3.37109,-7.46484 7.5,-7.46484 h 0.0352 0.10547 c 4.14063,0.0195 7.48438,3.39063 7.46484,7.53516 -0.0195,4.1289 -3.375,7.46484 -7.5,7.46484 z m 0,0"
         fill="#00c2cc"
         id="path576" />
      <path
         d="m 178.50781,487.26172 h -0.10547 c -4.14062,0 -7.5,-3.35938 -7.5,-7.5 0,-4.14063 3.35938,-7.5 7.5,-7.5 h 0.10547 c 4.14063,0 7.5,3.35937 7.5,7.5 0,4.14062 -3.35937,7.5 -7.5,7.5 z m 0,0"
         fill="#00c2cc"
         id="path578" />
      <path
         d="m 278.19922,30.746094 c -0.0117,0 -0.0195,0 -0.0312,0 h -0.10938 c -4.14062,-0.01953 -7.48437,-3.394532 -7.46484,-7.535156 0.0195,-4.144532 3.39844,-7.511719 7.53516,-7.464844 h 0.10546 c 4.14454,0.01953 7.48438,3.390625 7.46485,7.535156 -0.0195,4.128906 -3.3711,7.464844 -7.5,7.464844 z m 0,0"
         fill="#00c2cc"
         id="path580" />
      <path
         d="m 459.32422,15 c -0.0117,0 -0.0234,0 -0.0352,0 h -0.10547 C 455.04293,14.98047 451.69918,11.605469 451.71871,7.464844 451.73828,3.335938 455.09375,0 459.21875,0 h 0.0352 0.10546 c 4.14454,0.0195312 7.48438,3.394531 7.46485,7.535156 -0.0195,4.132813 -3.375,7.464844 -7.5,7.464844 z m 0,0"
         fill="#00c2cc"
         id="path582" />
      <path
         d="m 477.91797,26.078125 c -0.0117,0 -0.0234,0 -0.0352,0 h -0.10547 c -4.14453,-0.01953 -7.48437,-3.394531 -7.46484,-7.535156 0.0195,-4.132813 3.37109,-7.464844 7.49609,-7.464844 h 0.0391 0.10547 c 4.14062,0.01953 7.48437,3.390625 7.46484,7.535156 -0.0195,4.128907 -3.375,7.464844 -7.5,7.464844 z m 0,0"
         fill="#00c2cc"
         id="path584" />
      <path
         d="m 38.714844,227.76953 c -0.01172,0 -0.02344,0 -0.03516,0 h -0.105469 c -4.144531,-0.0195 -7.484375,-3.39453 -7.464844,-7.53516 0.01953,-4.13281 3.371094,-7.46484 7.5,-7.46484 H 38.644531 38.75 c 4.140625,0.0156 7.484375,3.39063 7.464844,7.53516 -0.01953,4.1289 -3.375,7.46484 -7.5,7.46484 z m 0,0"
         fill="#00c2cc"
         id="path586" />
      <path
         d="m 245.67187,143.75 c 0,-15.14453 -19.36718,-27.41797 -43.25,-27.41797 -23.88671,0 -43.25,12.27344 -43.25,27.41797 0,15.14062 19.36329,27.41406 43.25,27.41406 23.88282,0 43.25,-12.27344 43.25,-27.41406 z m 0,0"
         fill="#7e18ea"
         id="path588" />
      <path
         d="m 159.17187,143.75391 c 0,-15.15235 19.35938,-27.42188 43.25,-27.42188 23.57032,0 42.75,11.94922 43.24219,26.83203 -7.89062,-6.65234 -20.4414,-10.94922 -34.58203,-10.94922 -23.87891,0 -43.25,12.26953 -43.25,27.41797 0,0.19141 0,0.39063 0.0117,0.58203 -5.44141,-4.58203 -8.67188,-10.28125 -8.67188,-16.46093 z m 0,0"
         fill="#5100cb"
         id="path590" />
      <path
         d="m 362.30859,77.792969 c -1.10937,0.980469 -2.50781,1.640625 -4.08984,1.820312 -49.32813,5.648438 -84.76953,32.398439 -85.11719,32.667969 -1.36328,1.04297 -2.97265,1.54297 -4.5625,1.54297 -2.25,0 -4.48047,-1 -5.95703,-2.92969 -2.51172,-3.28125 -1.90234,-7.98047 1.37891,-10.51172 1.41015,-1.078122 31.87109,-24.179685 77.10937,-33.238279 7.3086,3.136719 14.39844,6.699219 21.23828,10.648438 z m 0,0"
         fill="#d82fea"
         id="path592" />
      <path
         d="m 115.39063,219.96484 c -0.26954,3.95703 -3.57032,6.98828 -7.48047,6.98828 -0.17188,0 -0.33985,-0.0117 -0.51172,-0.0195 -21.67969,-1.46875 -38.988284,-5.91015 -44.500002,-7.44922 0.820312,-4.98046 1.8125,-9.89062 3,-14.74218 1.300781,0.38281 5.660156,1.60156 12.121093,2.97265 7.699219,1.61719 18.378907,3.44922 30.390629,4.25782 4.1289,0.28125 7.26172,3.85156 6.98047,7.99218 z m 0,0"
         fill="#d82fea"
         id="path594" />
      <path
         d="m 448.51172,327.82422 c -2.01172,4.98047 -4.22266,9.85937 -6.6211,14.6289 -11.51171,0.76954 -44.64062,3.5 -59.83984,10.28125 -0.99219,0.44922 -2.03125,0.66016 -3.05078,0.66016 -2.87109,0 -5.60937,-1.66016 -6.85156,-4.45312 -1.6875,-3.78907 0.0117,-8.21875 3.80078,-9.91016 21.03906,-9.37891 67.30078,-11.70703 69.25,-11.80859 1.17187,-0.0508 2.30078,0.16015 3.3125,0.60156 z m 0,0"
         fill="#5100cb"
         id="path596" />
    </g>
    <g
       id="g801"
       transform="matrix(0.3292067,0,0,0.3292067,164.21936,95.528879)">
      <circle
         style="fill:#ffd83b"
         cx="259.27301"
         cy="256.004"
         r="195.75999"
         id="circle710" />
      <g
         id="g732">
	<path
   style="fill:#f3c432"
   d="m 454.969,256.052 c 0,4.272 -0.144,8.416 -0.416,12.544 -39.984,31.984 -98.16,62.448 -165.984,84.368 C 222.953,374.196 159.817,383.7 109.497,382.052 95.433,365.508 84.265,346.628 76.409,325.94 c 36.944,21.088 115.936,19.024 200.72,-8.272 89.184,-28.944 156.736,-76.928 169.84,-117.04 5.248,17.504 8,36.112 8,55.424 z"
   id="path712" />

	<circle
   style="fill:#f3c432"
   cx="190.729"
   cy="144.48399"
   r="36.736"
   id="circle714" />

	<circle
   style="fill:#f3c432"
   cx="359.14499"
   cy="160.964"
   r="27.264"
   id="circle716" />

	<circle
   style="fill:#f3c432"
   cx="212.905"
   cy="272.164"
   r="24"
   id="circle718" />

	<circle
   style="fill:#f3c432"
   cx="190.729"
   cy="381.14001"
   r="20"
   id="circle720" />

	<circle
   style="fill:#f3c432"
   cx="408.77701"
   cy="276.5"
   r="20"
   id="circle722" />

	<circle
   style="fill:#f3c432"
   cx="359.14499"
   cy="373.68399"
   r="15.968"
   id="circle724" />

	<circle
   style="fill:#f3c432"
   cx="304.16901"
   cy="322.40399"
   r="10.08"
   id="circle726" />

	<circle
   style="fill:#f3c432"
   cx="304.16901"
   cy="217.38"
   r="10.08"
   id="circle728" />

	<circle
   style="fill:#f3c432"
   cx="127.673"
   cy="242.084"
   r="10.08"
   id="circle730" />

</g>
      <path
         style="fill:#5b5f63"
         d="m 509.865,169.956 c -9.648,-29.632 -50.448,-45.904 -107.808,-47.84 8.816,9.376 16.672,19.568 23.44,30.608 11.312,5.936 19.024,13.792 22.192,23.712 2.48,7.584 2.064,15.584 -0.688,24.128 -13.104,40.112 -80.64,88.096 -169.84,117.04 -84.784,27.296 -163.776,29.36 -200.72,8.272 -10.208,-5.792 -17.088,-13.376 -20.128,-22.752 -3.728,-11.584 -0.96,-24.816 7.44,-38.32 -0.272,-2.896 -0.272,-5.936 -0.272,-8.816 0,-8.96 0.544,-17.776 1.792,-26.336 -47.84,35.84 -73.056,74.16 -63.136,104.64 9.52,29.632 50.32,45.76 107.392,47.696 50.32,1.648 113.456,-7.856 179.072,-29.088 67.824,-21.92 126,-52.384 165.984,-84.368 42.736,-34.064 64.656,-69.76 55.28,-98.576 z"
         id="path734" />
      <g
         id="g736">
</g>
      <g
         id="g738">
</g>
      <g
         id="g740">
</g>
      <g
         id="g742">
</g>
      <g
         id="g744">
</g>
      <g
         id="g746">
</g>
      <g
         id="g748">
</g>
      <g
         id="g750">
</g>
      <g
         id="g752">
</g>
      <g
         id="g754">
</g>
      <g
         id="g756">
</g>
      <g
         id="g758">
</g>
      <g
         id="g760">
</g>
      <g
         id="g762">
</g>
      <g
         id="g764">
</g>
    </g>
    <g
       id="g844"
       transform="matrix(0.56594994,0,0,0.56594994,2172.4067,18.76154)">
      <path
         d="M 31.768,340.012 C 84.378,268.834 393.361,152.951 480.232,172.031 l 30.155,-10.936 C 489.535,109.117 329.573,158.305 233.156,193.089 168.162,217.397 108.771,245.441 65.921,272.057 14.234,304.163 -6.2,329.231 1.613,350.948 Z"
         fill="#f68d36"
         id="path828" />
      <circle
         cx="256"
         cy="256"
         fill="#00d7c6"
         r="195.49699"
         id="circle830" />
      <path
         d="m 256,60.503 c -5.201,0 -10.354,0.208 -15.453,0.607 100.746,7.879 180.044,92.122 180.044,194.89 0,102.768 -79.299,187.012 -180.044,194.89 5.099,0.399 10.252,0.607 15.453,0.607 C 363.97,451.497 451.497,363.97 451.497,256 451.497,148.03 363.97,60.503 256,60.503 Z"
         fill="#02bab7"
         id="path832" />
      <circle
         cx="86.467003"
         cy="470.793"
         fill="#ffd54f"
         r="41.207001"
         id="circle834" />
      <path
         d="m 86.467,429.586 c -5.466,0 -10.679,1.074 -15.453,3.007 15.099,6.114 25.755,20.909 25.755,38.2 0,17.291 -10.655,32.086 -25.755,38.2 4.773,1.933 9.986,3.007 15.453,3.007 22.758,0 41.207,-18.449 41.207,-41.207 0,-22.758 -18.449,-41.207 -41.207,-41.207 z"
         fill="#ffc128"
         id="path836" />
      <circle
         cx="358.30499"
         cy="62.841"
         fill="#f68d36"
         r="62.841"
         id="circle838" />
      <path
         d="m 358.305,0 c -5.335,0 -10.512,0.67 -15.458,1.921 27.231,6.888 47.383,31.548 47.383,60.92 0,29.372 -20.153,54.031 -47.383,60.92 4.946,1.251 10.123,1.921 15.458,1.921 34.706,0 62.841,-28.135 62.841,-62.841 C 421.146,28.135 393.011,0 358.305,0 Z"
         fill="#f66f1c"
         id="path840" />
      <path
         d="m 480.232,172.031 c -3.377,6.376 -17.676,22.311 -58.708,46.721 -79.24,47.908 -224.056,102.144 -315.302,118.006 -46.627,8.446 -67.746,5.831 -74.453,3.255 L 1.613,350.948 c 6.349,17.999 29.522,22.652 51.744,22.401 102.986,-1.232 299.478,-74.817 392.721,-133.363 51.688,-32.106 72.122,-57.174 64.309,-78.891 z"
         fill="#f68d36"
         id="path842" />
    </g>
    <g
       id="g955"
       transform="matrix(0.42253371,0,0,0.42253371,1859.2587,792.53787)">
      <path
         d="m 451.762,307.044 c -6.04,20.55 -15.12,39.8 -26.72,57.22 -14.5,1.42 -27.78,12.65 -37.92,13.57 -10.87,0.98 -21.17,5.09 -29.99,11.51 -0.04,0.03 -0.08,0.06 -0.12,0.09 -10.66,7.72 -24.49,12.28 -38.96,12.84 -1.03,0.04 -2.06,0.06 -3.08,0.06 -13.95,0 -26.63,-3.72 -36.75,-9.99 -9.02,-5.58 -19.25,-8.86 -29.85,-9.18 -33.38,-1 -105.61,-13.5 -175.25,-18.14 -4.261,-6.344 11.44,-21.246 11.44,-21.246 l -38.19,-35.174 c 69.52,5.35 147.01,-1.56 186.93,-0.2 14.3,0.49 28.24,-4.3 39.36,-13.32 11.27,-9.15 26.15,-14.09 41.43,-14.73 1.03,-0.04 2.06,-0.06 3.08,-0.06 15.41,0 29.25,4.39 39.83,11.81 11.41,8.01 25.3,11.67 39.18,10.39 15.2,-1.41 35.29,6.67 55.58,4.55 z"
         fill="#3a67c1"
         id="path913" />
      <path
         d="m 349.052,340.027 c 0.045,1.167 -0.046,2.319 -0.266,3.447 -2.063,10.607 -14.828,14.149 -31.288,14.789 -18.212,0.709 -29.145,-4.812 -29.617,-16.953 -0.286,-7.344 0.084,-12.775 8.229,-17.09 5.319,-2.818 11.916,-4.613 19.111,-4.893 18.212,-0.708 33.358,8.559 33.831,20.7 z"
         fill="#91dafa"
         id="path915" />
      <path
         d="m 349.042,341.394 c -0.61,11.54 -14.59,21.22 -32.11,21.9 -18.21,0.71 -33.36,-8.56 -33.83,-20.7 -0.28,-7.34 4.87,-14.06 13.01,-18.37 -0.02,0.46 -0.03,0.91 -0.01,1.37 0.47,12.14 15.62,21.41 33.83,20.7 7.19,-0.28 13.79,-2.08 19.11,-4.9 z"
         fill="#75cff9"
         id="path917" />
      <path
         d="m 183.362,370.844 c -16.196,-0.673 -31.459,26.406 -49.779,25.463 -18.952,-0.976 -41.007,-29.986 -60.461,-31.283 -11.54,-17.18 -20.63,-36.16 -26.75,-56.42 29.67,2.29 60.8,4.15 89.83,5.66 2.49,4.35 5.13,8.61 7.92,12.76 11,16.37 24.22,31.13 39.24,43.82 z"
         fill="#30569f"
         id="path919" />
      <path
         d="m 387.122,367.834 c 10.14,-0.92 23.42,-2.15 37.92,-3.57 -12.664,19.037 -28.331,35.905 -46.325,49.927 -35.845,27.933 -80.673,35.902 -129.635,35.902 -73.22,0 -128.855,-27.934 -166.825,-84.474 38.255,2.549 68.156,3.857 101.105,5.22 27.032,1.119 49.966,1.874 65.01,2.325 10.6,0.32 20.83,3.6 29.85,9.18 10.12,6.27 22.8,9.99 36.75,9.99 1.02,0 2.05,-0.02 3.08,-0.06 14.47,-0.56 28.3,-5.12 38.96,-12.84 0.04,-0.03 0.08,-0.06 0.12,-0.09 8.82,-6.42 19.12,-10.53 29.99,-11.51 z"
         fill="#91dafa"
         id="path921" />
      <path
         d="m 58.94,55.975 -8.79,-17.58 c -0.097,-0.194 -0.254,-0.35 -0.447,-0.447 l -17.58,-8.79 c -0.737,-0.369 -0.737,-1.42 0,-1.789 l 17.58,-8.79 c 0.194,-0.097 0.35,-0.254 0.447,-0.447 l 8.79,-17.58 c 0.369,-0.737 1.42,-0.737 1.789,0 l 8.79,17.58 c 0.097,0.194 0.254,0.35 0.447,0.447 l 17.58,8.79 c 0.737,0.369 0.737,1.42 0,1.789 l -17.58,8.79 c -0.194,0.097 -0.35,0.254 -0.447,0.447 l -8.79,17.58 c -0.368,0.737 -1.42,0.737 -1.789,0 z"
         fill="#f3d332"
         id="path923" />
      <path
         d="m 449.941,493.977 -8.8,-17.584 c -0.097,-0.194 -0.254,-0.35 -0.447,-0.447 l -17.598,-8.791 c -0.737,-0.368 -0.737,-1.421 0,-1.789 l 17.598,-8.791 c 0.194,-0.097 0.351,-0.254 0.447,-0.447 l 8.8,-17.584 c 0.369,-0.737 1.42,-0.737 1.789,0 l 8.8,17.584 c 0.097,0.193 0.254,0.35 0.447,0.447 l 17.598,8.791 c 0.737,0.368 0.737,1.421 0,1.789 l -17.598,8.791 c -0.194,0.097 -0.351,0.254 -0.447,0.447 l -8.8,17.584 c -0.37,0.737 -1.421,0.737 -1.789,0 z"
         fill="#f3d332"
         id="path925" />
      <g
         fill="#75cff9"
         id="g933">
        <path
           d="m 479.116,47.273 h -6.173 c -0.552,0 -1,-0.448 -1,-1 v -6.162 c 0,-4.107 -3.164,-7.688 -7.269,-7.811 -4.247,-0.128 -7.731,3.278 -7.731,7.497 v 6.476 c 0,0.552 -0.448,1 -1,1 h -6.173 c -4.107,0 -7.688,3.164 -7.811,7.269 -0.128,4.247 3.278,7.731 7.497,7.731 h 6.487 c 0.552,0 1,0.448 1,1 v 6.162 c 0,4.107 3.164,7.688 7.269,7.811 4.247,0.128 7.731,-3.278 7.731,-7.497 v -6.477 c 0,-0.552 0.448,-1 1,-1 h 6.488 c 4.219,0 7.624,-3.483 7.497,-7.731 -0.124,-4.103 -3.705,-7.268 -7.812,-7.268 z"
           id="path927" />
        <path
           d="m 35.02,391.552 h -1.303 c -0.552,0 -1,-0.448 -1,-1 v -1.296 c 0,-4.107 -3.164,-7.688 -7.269,-7.811 -4.247,-0.128 -7.731,3.278 -7.731,7.497 v 1.61 c 0,0.552 -0.448,1 -1,1 h -1.304 c -4.107,0 -7.688,3.164 -7.811,7.269 -0.128,4.247 3.278,7.731 7.497,7.731 h 1.618 c 0.552,0 1,0.448 1,1 v 1.296 c 0,4.107 3.164,7.688 7.269,7.811 4.247,0.128 7.731,-3.278 7.731,-7.497 v -1.61 c 0,-0.552 0.448,-1 1,-1 h 1.618 c 4.219,0 7.624,-3.483 7.497,-7.731 -0.124,-4.105 -3.705,-7.269 -7.812,-7.269 z"
           id="path929" />
        <path
           d="m 92.199,464.37 h -1.304 c -0.552,0 -1,-0.448 -1,-1 v -1.296 c 0,-4.107 -3.164,-7.688 -7.269,-7.811 -4.247,-0.128 -7.731,3.278 -7.731,7.497 v 1.61 c 0,0.552 -0.448,1 -1,1 h -1.304 c -4.107,0 -7.688,3.164 -7.811,7.269 -0.128,4.247 3.278,7.731 7.497,7.731 h 1.618 c 0.552,0 1,0.448 1,1 v 1.296 c 0,4.107 3.164,7.688 7.269,7.811 4.247,0.128 7.731,-3.278 7.731,-7.497 v -1.61 c 0,-0.552 0.448,-1 1,-1 h 1.618 c 4.219,0 7.624,-3.483 7.497,-7.731 -0.124,-4.104 -3.705,-7.269 -7.811,-7.269 z"
           id="path931" />
      </g>
      <path
         d="m 460.332,247.264 c 0,13.38 -1.242,26.47 -3.619,39.162 -1.311,7 -9.827,7.396 -11.811,14.136 -20.29,2.12 -33.52,0.522 -48.72,1.932 -13.88,1.28 -27.77,-2.38 -39.18,-10.39 -10.58,-7.42 -24.42,-11.81 -39.83,-11.81 -1.02,0 -2.05,0.02 -3.08,0.06 -15.28,0.64 -30.16,5.58 -41.43,14.73 -11.12,9.02 -25.06,13.81 -39.36,13.32 -39.92,-1.36 -117.41,5.55 -186.93,0.2 -3.753,-12.271 37.309,-24.639 35.885,-37.914 -1.327,-12.368 -45.3,-25.612 -44.425,-37.946 l 1.7,-0.1 106.76,-5.62 c 101.08,0 68.52,-15.72 162.47,-15.72 2.1,0 101.7,10.06 149.51,7.4 l 0.14,-0.01 c 1.27,9.35 1.92,18.88 1.92,28.57 z"
         fill="#91dafa"
         id="path935" />
      <path
         d="m 414.434,129.024 c -54.05,4.92 -105.432,-2.21 -159.642,-2.05 l -79.97,-1.45 c -26.45,-1.06 -56.583,13.808 -86.723,11.378 26.438,-34.901 55.525,-78.587 98.353,-91.788 19.719,-6.078 40.668,-9.35 62.38,-9.35 59.889,0 113.956,24.889 152.433,64.887 5.686,5.912 8.195,21.833 13.169,28.373 z"
         fill="#91dafa"
         id="path937" />
      <g
         fill="#75cff9"
         id="g945">
        <path
           d="m 382.192,411.424 c -36.38,29.6 -82.8,47.34 -133.36,47.34 -73.22,0 -137.74,-37.2 -175.71,-93.74 38.26,2.55 77.29,4.45 110.24,5.82 36.83,31.15 84.46,49.92 136.47,49.92 21.7,0 42.65,-3.27 62.36,-9.34 z"
           id="path939" />
        <path
           d="m 417.272,119.344 c -54.05,4.92 -109.649,28.632 -163.859,28.792 h -87.83 c -26.45,-1.06 -55.281,-26.052 -85.421,-28.482 1.11,-1.46 2.24,-2.9 3.38,-4.33 0.29,-0.36 0.58,-0.72 0.87,-1.08 2.35,-2.9 4.77,-5.73 7.26,-8.5 0.22,-0.24 0.44,-0.48 0.66,-0.73 25.14,-27.65 57.5,-48.62 94.12,-59.9 -13.17,10.72 -25.03,22.99 -35.29,36.54 -4.62,6.1 -8.91,12.47 -12.86,19.06 -0.77,1.29 0.12,2.93 1.61,3.02 6.95,0.41 13.71,0.78 20.08,1.1 0.7,0.03 1.35,-0.31 1.74,-0.89 3.48,-5.08 8.19,-9.62 13.99,-13.33 10.57,-6.76 24.22,-10.48 38.44,-10.48 0.49,0 0.98,0 1.47,0.01 23.63,0.42 43.49,10.73 53.05,25.76 0.38,0.59 1.02,0.95 1.72,0.94 43.52,-0.51 87.4,-2.57 130.86,-6.19 5.69,5.91 11.04,12.15 16.01,18.69 z"
           id="path941" />
        <path
           d="m 456.702,286.424 c -1.291,6.953 -2.947,13.837 -4.94,20.62 -20.29,2.12 -40.38,4.04 -55.58,5.45 -13.88,1.28 -27.77,-2.38 -39.18,-10.39 -10.58,-7.42 -24.42,-11.81 -39.83,-11.81 -1.02,0 -2.05,0.02 -3.08,0.06 -15.28,0.64 -30.16,5.58 -41.43,14.73 -11.12,9.02 -25.06,13.81 -39.36,13.32 -39.92,-1.36 -117.41,-4.45 -186.93,-9.8 -7.25,-23.7 -10.35,-50.29 -8.54,-75.86 l 1.7,-0.1 59.75,-3.15 10.68,6.04 c 1.48,12.04 3.98,23.75 7.41,35.07 2.14,7.1 4.66,14.04 7.51,20.79 0.59,1.41 1.95,2.35 3.48,2.43 42.34,2.27 81.08,3.76 105.62,4.59 0.44,0.02 0.88,0.02 1.32,0.02 8.9,0 17.7,-3.15 24.76,-8.88 14.2,-11.53 33.09,-18.34 53.19,-19.18 1.34,-0.05 2.63,-0.08 3.92,-0.08 19.17,0 36.92,5.34 51.31,15.44 6.54,4.59 14.24,7.01 22.27,7.01 1.19,0 2.4,-0.06 3.59,-0.17 20.15,-1.86 38.77,-3.69 55.34,-5.42 z"
           id="path943" />
      </g>
      <path
         d="m 458.412,218.694 -0.14,0.01 c -47.81,2.66 -147.41,2.6 -149.51,2.6 -93.95,0 -61.39,15.72 -162.47,15.72 l -36.33,-1.49 -70.43,-2.89 c -0.899,0.053 48.792,-92.977 57.966,-92.337 6.617,0.462 22.523,-17.76 29.184,-17.341 17.359,1.092 34.333,2.005 48.14,2.558 l 79.97,1.45 c 54.21,-0.16 108.43,-2.71 162.48,-7.63 21.58,28.36 36.15,62.34 41.14,99.35 z"
         fill="#3a67c1"
         id="path947" />
      <path
         d="m 108.332,209.264 c 0,8.89 0.55,17.66 1.63,26.27 l -70.43,-2.89 -1.7,0.1 c 2.86,-42.33 18.18,-81.24 42.33,-113.09 14.41,1.16 30.63,2.31 46.52,3.31 -9.92,22.17 -16.13,46.36 -17.85,71.78 -0.33,4.8 -0.5,9.64 -0.5,14.52 z"
         fill="#30569f"
         id="path949" />
      <path
         d="m 254.805,126.753 c 0,0.07 0,0.15 -0.01,0.22 -0.44,14.21 -16.875,19.511 -38.855,19.121 -21.99,-0.39 -38.967,-5.816 -38.867,-20.046 0.135,-7.718 3.217,-15.259 11.565,-19.859 7.13,-3.929 16.462,-6.226 26.638,-6.046 22.079,0.39 39.779,12.3 39.529,26.61 z"
         fill="#3a67c1"
         id="path951" />
      <path
         d="m 254.792,127.014 c -0.47,14.19 -18.48,25.33 -40.44,24.94 -21.99,-0.39 -39.63,-12.2 -39.53,-26.43 v -0.18 c 0.14,-7.78 5.55,-14.66 14.01,-19.26 -0.01,0.09 -0.01,0.17 -0.01,0.26 v 0.18 c -0.1,14.23 17.54,26.04 39.53,26.43 10.08,0.18 19.33,-2.07 26.44,-5.94 z"
         fill="#30569f"
         id="path953" />
    </g>
    <g
       id="055---Meteor"
       fill-rule="nonzero"
       style="fill:none"
       transform="matrix(8.6779661,0,0,8.6779661,424.66361,829.38144)">
      <path
         id="Shape"
         d="M 54.494,11.482 58,2.14 C 58.232782,1.5170652 58.050596,0.81505193 57.544265,0.38393201 57.037934,-0.04718792 56.315854,-0.11512067 55.738,0.214 L 47.9,4.694 C 47.411314,4.9730586 46.811041,4.9709393 46.324337,4.6884369 45.837634,4.4059345 45.538066,3.8857504 45.538,3.323 45.538267,2.8040397 45.283671,2.3180366 44.856878,2.0227949 44.430085,1.7275532 43.885519,1.6607215 43.4,1.844 L 39.628,3.259 C 39.151914,3.437442 38.618586,3.3710537 38.200776,3.0813399 37.782965,2.7916262 37.533803,2.3154285 37.534,1.807 V 1.8 C 37.535527,1.2396683 37.234515,0.72213733 36.746713,0.44641419 36.258911,0.17069105 35.660275,0.17970887 35.181,0.47 L 11.83,15.25 11.84,15.26 C 4.1735841,19.89047 -0.01650002,28.626847 1.1714759,37.504003 2.3594518,46.381159 8.6992307,53.708388 17.313415,56.160125 25.9276,58.611861 35.175568,55.721158 40.86,48.8 l 0.01,0.01 17.787,-22.663 c 0.500388,-0.628492 0.448725,-1.5326 -0.12,-2.1 L 57.224,22.733 C 56.800839,22.310181 56.652945,21.684538 56.842,21.117 L 58.7,15.532 C 58.875121,15.006722 58.76231,14.428095 58.402689,14.007074 58.043071,13.586052 57.489198,13.384159 56.943,13.475 l -0.714,0.119 C 55.673096,13.684844 55.110868,13.472866 54.753316,13.037621 54.395763,12.602376 54.296965,12.009693 54.494,11.482 Z"
         fill="#f3d55b" />
      <path
         id="path1017"
         d="M 23.5,55 C 22.887,55 22.262,54.972 21.646,54.918 12.827143,54.117098 5.5193461,47.744207 3.5261724,39.116291 1.5329987,30.488374 5.3050306,21.555882 12.879,16.968 l 2.175,-1.322 -0.042,-0.042 20.6,-13.041 c 0.353347,1.632965 1.797243,2.7987403 3.468,2.8 0.426176,-4.2e-6 0.848887,-0.076553 1.248,-0.226 l 3.251,-1.22 c 0.123778,0.7600361 0.492483,1.4588209 1.05,1.99 1.143678,1.1037921 2.878996,1.3193823 4.258,0.529 l 6.827,-3.9 -3.093,8.244 c -0.411294,1.09779 -0.259051,2.327397 0.407565,3.291725 0.666615,0.964329 1.763131,1.541185 2.935435,1.544275 0.201062,5.29e-4 0.401799,-0.0162 0.6,-0.05 h 0.024 l -1.641,4.923 c -0.433269,1.285757 -0.09779,2.706006 0.865,3.662 l 1.049,1.05 L 39.6,47.188 39.315,47.527 C 35.42983,52.262438 29.625266,55.005246 23.5,55 Z"
         fill="#f0c419" />
      <path
         id="path1019"
         d="m 39.728,38.1 -0.845,1.724 c -0.283926,0.57897 -0.511959,1.18371 -0.681,1.806 -0.991684,3.660288 -3.939502,6.46351 -7.645,7.27 l -0.617,0.134 c -0.259,0.056 -0.515,0.123 -0.769,0.2 l -4.052,1.22 c -1.071681,0.323136 -2.18944,0.466741 -3.308,0.425 L 20.369,50.825 C 18.056023,50.73871 15.841855,49.865184 14.093,48.349 L 11.716,46.288 9.85,44.717 C 7.5434359,42.780933 6.2145797,39.921401 6.222,36.91 v -0.5 c 0.00234,-1.261482 0.239727,-2.511483 0.7,-3.686 l 1.572,-4 c 0.096667,-0.246667 0.2033333,-0.489667 0.32,-0.729 L 9.851,25.86 c 1.056806,-2.175868 2.855811,-3.902884 5.073,-4.87 l 2.525,-1.1 4.159,-1.576 c 1.249201,-0.473767 2.579617,-0.696353 3.915,-0.655 l 1.246,0.038 c 2.356678,0.0728 4.614667,0.962987 6.387,2.518 l 1.544,1.353 c 0.612509,0.537255 1.158102,1.146305 1.625,1.814 l 2.225,3.182 c 0.612025,0.874403 1.082147,1.839959 1.393,2.861 l 0.379,1.242 c 0.750827,2.463445 0.538526,5.120061 -0.594,7.433 z"
         fill="#7f8c8d" />
      <g
         fill="#56595e"
         id="g1028">
        <circle
           id="Oval"
           cx="14.5"
           cy="36.5"
           r="2.5" />
        <circle
           id="circle1022"
           cx="21"
           cy="27"
           r="4" />
        <circle
           id="circle1024"
           cx="33"
           cy="32"
           r="3" />
        <circle
           id="circle1026"
           cx="24"
           cy="42"
           r="4" />
      </g>
      <path
         id="path1030"
         d="M 32,15 C 31.559123,15.00054 31.16991,14.71229 31.041873,14.290414 30.913837,13.868538 31.07719,13.412588 31.444,13.168 l 9,-6 c 0.297245,-0.1982824 0.677693,-0.2229246 0.998033,-0.064644 0.32034,0.1582805 0.531905,0.4754371 0.555,0.832 C 42.020128,8.2919188 41.851245,8.6337176 41.554,8.832 l -9,6 C 32.389937,14.941397 32.197192,14.999847 32,15 Z"
         fill="#e57e25" />
      <path
         id="path1032"
         d="m 43,26 c -0.393752,1.05e-4 -0.750915,-0.230864 -0.912353,-0.59 -0.161438,-0.359136 -0.0971,-0.779579 0.164353,-1.074 l 8,-9 c 0.233435,-0.280803 0.601368,-0.41204 0.959818,-0.342355 0.358449,0.06968 0.650416,0.329211 0.761645,0.677018 0.11123,0.347808 0.02403,0.72859 -0.227463,0.993337 l -8,9 C 43.556625,25.877256 43.285203,25.999505 43,26 Z"
         fill="#e57e25" />
      <path
         id="path1034"
         d="M 37.918,19.9 C 37.497126,19.899811 37.121416,19.63612 36.97816,19.240376 36.834905,18.844632 36.954768,18.401549 37.278,18.132 L 51.54,6.248 c 0.274559,-0.2288286 0.65034,-0.2937997 0.98579,-0.1704393 0.335451,0.1233604 0.579608,0.416311 0.640501,0.7685 C 53.227183,7.1982498 53.095559,7.5561714 52.821,7.785 L 38.558,19.67 c -0.179912,0.149081 -0.406348,0.230456 -0.64,0.23 z"
         fill="#e57e25" />
    </g>
    <g
       id="g1143"
       transform="matrix(0.24157106,0,0,0.24157106,1592.5791,335.94938)">
      <g
         id="g1121">
        <path
           d="m 311.327,357.316 -99.39,90.08 v 29.853 l 36.52,19.733 c 42.243,0.051 85.064,-10.662 124.281,-33.303 63.727,-36.791 104.975,-97.551 118.963,-164.316 z"
           fill="#e8b5b1"
           id="path1111" />
        <path
           d="M 463.686,124.265 430.718,95.481 410.012,59.619 C 385.132,38.345 356.526,22.457 326.05,12.457 h -60 L 145.014,82.334 v 282.774 l 48.254,48.254 133.058,-30.069 166.511,-180.223 c -5.022,-27.014 -14.629,-53.653 -29.151,-78.805 z"
           fill="#ff8f71"
           id="path1113" />
        <path
           d="m 410.012,59.619 -251.973,145.471 -13.025,47.32 14.061,47.717 88.595,-51.148 c 5.076,-2.931 9.175,-7.287 11.805,-12.524 8.884,-17.697 22.866,-33.085 41.298,-43.727 18.432,-10.641 38.749,-15.055 58.517,-13.9 5.851,0.342 11.674,-1.03 16.75,-3.961 l 87.647,-50.602 C 449.164,99.114 430.897,77.475 410.012,59.619 Z"
           fill="#fad5cb"
           id="path1115" />
        <path
           d="m 492.837,203.071 -48.647,28.085 c -13.318,7.689 -30.043,6.054 -41.635,-4.051 -23.491,-20.477 -58.3,-24.845 -86.784,-8.399 -28.486,16.446 -42.107,48.774 -36.118,79.355 2.955,15.091 -3.991,30.393 -17.309,38.082 l -46.589,26.896 c -7.674,4.431 -17.143,3.815 -24.417,-1.245 -5.885,-4.095 -13.035,-6.038 -20.179,-5.519 v 100.961 l 47.085,0.007 105.352,-60.828 c 9.025,-5.211 19.286,-7.772 29.707,-7.766 37.368,0.025 72.178,-20.025 90.881,-52.469 5.205,-9.028 12.554,-16.633 21.579,-21.844 l 25.938,-14.975 c 6.576,-31.392 7.12,-64.108 1.136,-96.29 z M 375.764,322.616 c -21.514,12.421 -49.039,5.053 -61.465,-16.469 -12.427,-21.523 -5.044,-49.043 16.469,-61.464 21.514,-12.42 49.038,-5.055 61.465,16.469 12.425,21.519 5.048,49.041 -16.469,61.464 z"
           fill="#fad5cb"
           id="path1117" />
        <path
           d="m 248.457,0.018 c 26.431,0.022 52.637,4.249 77.593,12.438 L 189.731,91.158 V 32.961 Z"
           fill="#f2d4d3"
           id="path1119" />
      </g>
      <g
         id="g1133">
        <path
           d="m 201.071,457.244 -30.121,27.299 c 24.929,8.181 51.105,12.407 77.507,12.439 -11.061,-12.722 -21.129,-26.007 -30.214,-39.738 z"
           fill="#d6948c"
           id="path1123" />
        <path
           d="M 189.731,91.158 H 150.984 L 5.3,197.636 c -6.577,31.393 -7.121,64.109 -1.137,96.292 l 20.706,35.862 8.445,42.943 c 14.522,25.151 32.789,46.79 53.674,64.646 h 84.17 V 356.275 C 145.353,269.18 151.549,174.73 189.731,91.158 Z"
           fill="#ff6f4d"
           id="path1125" />
        <path
           d="M 158.039,205.09 4.163,293.928 c 5.023,27.015 14.629,53.653 29.151,78.806 l 125.76,-72.606 c -4.32,-31.512 -4.665,-63.456 -1.035,-95.038 z"
           fill="#ffb39d"
           id="path1127" />
        <path
           d="m 157.812,360.376 c -10.846,6.262 -16.523,18.038 -15.534,29.742 0.746,8.829 -3.456,17.337 -11.13,21.768 l -44.16,25.495 c 24.88,21.274 53.486,37.161 83.962,47.162 l 47.293,-27.299 c -20.938,-31.643 -36.637,-65.702 -47.085,-100.968 -4.561,0.332 -9.119,1.66 -13.346,4.1 z"
           fill="#ffb39d"
           id="path1129" />
        <path
           d="M 124.262,33.32 C 60.536,70.111 19.288,130.871 5.3,197.636 L 189.731,91.158 C 204.516,58.796 224.077,28.057 248.457,0.018 206.242,-0.019 163.452,10.694 124.262,33.32 Z"
           fill="#e8b5b1"
           id="path1131" />
      </g>
      <g
         fill="#313d40"
         id="g1141">
        <path
           d="m 173.661,226.093 c -2.07,-3.587 -6.659,-4.815 -10.245,-2.745 -3.587,2.071 -4.816,6.658 -2.745,10.245 l 6,10.393 c 2.071,3.589 6.66,4.815 10.245,2.745 3.587,-2.071 4.816,-6.658 2.745,-10.245 z"
           id="path1135" />
        <path
           d="m 287.825,174.037 -6,-10.393 c -2.07,-3.587 -6.66,-4.813 -10.245,-2.745 -3.587,2.071 -4.816,6.658 -2.745,10.245 l 6,10.393 c 1.389,2.406 3.91,3.751 6.502,3.751 1.272,0 2.562,-0.324 3.743,-1.006 3.587,-2.072 4.817,-6.658 2.745,-10.245 z"
           id="path1137" />
        <path
           d="m 242.768,193.109 c -4.064,-0.803 -8.005,1.855 -8.8,5.921 -1.677,8.568 -10.504,13.63 -18.724,10.81 -3.912,-1.342 -8.184,0.743 -9.527,4.662 -1.344,3.918 0.744,8.184 4.662,9.527 16.817,5.768 34.886,-4.617 38.31,-22.12 0.794,-4.065 -1.856,-8.005 -5.921,-8.8 z"
           id="path1139" />
      </g>
    </g>
    <g
       id="g1428"
       transform="translate(1087.5029,855.1678)">
      <path
         style="fill:#27536b"
         d="m 512,255.994 c 0,67.185 -25.881,128.33 -68.229,174.009 -21.507,23.206 -47.266,42.414 -76.046,56.393 -31.089,15.111 -65.708,24.105 -102.282,25.426 -3.131,0.122 -6.273,0.178 -9.438,0.178 -3.164,0 -6.307,-0.056 -9.438,-0.178 C 209.993,510.501 175.374,501.507 144.285,486.396 115.506,472.417 89.746,453.209 68.228,430.003 25.893,384.325 0,323.18 0,255.994 0,114.618 114.618,0 256.006,0 397.394,0 512,114.618 512,255.994 Z"
         id="path1274" />
      <polygon
         style="fill:#ffffff"
         points="75.774,168.15 38.778,172.239 75.774,176.329 79.864,213.325 83.953,176.329 120.95,172.239 83.953,168.15 79.864,131.153 "
         id="polygon1276" />
      <path
         style="fill:#cccccc"
         d="M 393.377,211.882 H 118.623 c -14.577,0 -26.394,11.817 -26.394,26.394 v 120.42 c 0,14.577 11.817,26.394 26.394,26.394 h 274.754 c 14.577,0 26.394,-11.817 26.394,-26.394 v -120.42 c 10e-4,-14.577 -11.817,-26.394 -26.394,-26.394 z"
         id="path1278" />
      <polygon
         style="fill:#ffffff"
         points="434.772,335.395 411.127,338.009 434.772,340.623 437.386,364.268 439.999,340.623 463.645,338.009 439.999,335.395 437.386,311.75 "
         id="polygon1280" />
      <path
         style="fill:#f77759"
         d="m 443.778,389.028 v 30.378 h -35.43 V 381.8 h 35.075 c 0.233,2.376 0.355,4.785 0.355,7.228 z"
         id="path1282" />
      <path
         style="fill:#f2f2f2"
         d="m 164.855,163.379 c 20.929,-27.447 53.972,-45.157 91.146,-45.157 37.184,0 70.227,17.71 91.157,45.157 14.701,19.264 23.428,43.325 23.428,69.428 0,2.121 -0.056,4.23 -0.178,6.329 -1.654,30.478 -15.211,57.77 -36.119,77.334 -20.474,19.186 -48.01,30.922 -78.288,30.922 -30.267,0 -57.792,-11.736 -78.277,-30.911 -20.896,-19.564 -34.464,-46.866 -36.13,-77.345 -0.111,-2.098 -0.167,-4.208 -0.167,-6.329 0.001,-26.104 8.728,-50.164 23.428,-69.428 z m 179.916,74.024 c 0,-47.699 -39.738,-68.706 -88.77,-68.706 -49.02,0 -88.77,21.007 -88.77,68.706 0,47.71 39.749,86.383 88.77,86.383 49.032,0 88.77,-38.672 88.77,-86.383 z"
         id="path1284" />
      <path
         style="fill:#e6e6e6"
         d="m 295.972,337.398 c -30.267,0 -57.792,-11.736 -78.277,-30.911 -20.896,-19.564 -34.464,-46.866 -36.13,-77.345 -0.111,-2.098 -0.167,-4.208 -0.167,-6.329 0,-26.104 8.727,-50.164 23.428,-69.428 11.418,-14.974 26.448,-27.04 43.781,-34.923 -34.141,2.175 -64.222,19.303 -83.752,44.916 -14.701,19.264 -23.428,43.325 -23.428,69.428 0,2.121 0.056,4.23 0.167,6.329 1.665,30.478 15.234,57.781 36.13,77.345 20.485,19.175 48.01,30.911 78.277,30.911 16.91,0 32.963,-3.664 47.409,-10.238 -2.459,0.158 -4.937,0.245 -7.438,0.245 z"
         id="path1286" />
      <path
         style="fill:#cccccc"
         d="m 256.001,328.227 c -51.397,0 -93.211,-40.743 -93.211,-90.824 0,-39.927 26.817,-66.159 73.577,-71.97 6.272,-0.782 12.879,-1.178 19.634,-1.178 26.55,0 49.135,5.97 65.314,17.265 18.251,12.741 27.897,32.064 27.897,55.882 0,35.163 -21.132,67.479 -53.835,82.332 -12.364,5.635 -25.614,8.493 -39.376,8.493 z m 0,-155.089 c -6.39,0 -12.627,0.373 -18.538,1.109 -57.243,7.114 -65.791,42.623 -65.791,63.156 0,45.183 37.83,81.941 84.328,81.941 12.483,0 24.494,-2.589 35.698,-7.694 29.543,-13.417 48.631,-42.561 48.631,-74.247 0,-21.084 -8.109,-37.435 -24.099,-48.599 -14.68,-10.249 -35.508,-15.666 -60.229,-15.666 z"
         id="path1288" />
      <path
         style="fill:#46b5d3"
         d="m 344.771,237.403 c 0,34.653 -20.963,64.543 -51.23,78.288 -11.403,5.196 -24.127,8.094 -37.54,8.094 -49.02,0 -88.77,-38.672 -88.77,-86.383 0,-41.326 29.834,-62.611 69.683,-67.563 6.151,-0.766 12.535,-1.144 19.086,-1.144 49.033,0.002 88.771,21.009 88.771,68.708 z"
         id="path1290" />
      <path
         style="fill:#51bee5"
         d="m 344.771,237.403 c 0,34.653 -20.963,64.543 -51.23,78.288 -2.487,0.222 -5.019,0.322 -7.561,0.322 -49.02,0 -88.77,-38.672 -88.77,-86.383 0,-30.045 15.778,-49.509 39.705,-59.79 6.151,-0.766 12.535,-1.144 19.086,-1.144 49.032,0.001 88.77,21.008 88.77,68.707 z"
         id="path1292" />
      <path
         style="fill:#cccccc"
         d="m 367.732,316.48 v 0.389 c -25.015,34.631 -65.731,57.17 -111.72,57.17 -45.978,0 -86.705,-22.517 -111.72,-57.137 v -0.422 h 33.432 c 20.485,19.175 48.01,30.911 78.277,30.911 30.278,0 57.814,-11.736 78.288,-30.922 l 0.011,0.011 z"
         id="path1294" />
      <g
         id="g1300">
	<path
   style="fill:#e6e6e6"
   d="m 144.288,316.902 v 169.49 C 115.509,472.413 89.749,453.205 68.231,429.999 v -40.971 c 0,-28.802 16.777,-53.684 41.093,-65.387 9.515,-4.597 20.174,-7.162 31.444,-7.162 h 3.209 c 0.1,0.145 0.2,0.29 0.311,0.423 z"
   id="path1296" />

	<path
   style="fill:#e6e6e6"
   d="m 443.773,419.406 v 10.592 c -21.507,23.206 -47.266,42.414 -76.046,56.393 V 316.869 c 0.1,-0.122 0.2,-0.255 0.289,-0.389 h 3.209 c 11.27,0 21.929,2.565 31.444,7.162 22.262,10.715 38.206,32.466 40.749,58.158 h -35.075 v 37.606 z"
   id="path1298" />

</g>
      <g
         id="g1306">
	<path
   style="fill:#f2f2f2"
   d="m 256.008,374.039 v 137.957 c -40.06,0 -77.966,-9.205 -111.72,-25.604 v -169.49 c 25.015,34.62 65.742,57.137 111.72,57.137 z"
   id="path1302" />

	<path
   style="fill:#f2f2f2"
   d="m 256.008,374.039 v 137.957 c 40.06,0 77.966,-9.205 111.72,-25.604 V 316.869 c -25.016,34.63 -65.731,57.17 -111.72,57.17 z"
   id="path1304" />

</g>
      <ellipse
         style="fill:#73d5ef"
         cx="314.108"
         cy="231.812"
         rx="16.655001"
         ry="27.757999"
         id="ellipse1308" />
      <g
         id="g1322">
	<polygon
   style="fill:#ffffff"
   points="450.715,202.043 413.718,206.132 450.715,210.223 454.804,247.219 458.895,210.223 495.89,206.132 458.895,202.043 454.804,165.046 "
   id="polygon1310" />

	
		<rect
   x="443.73199"
   y="282.13901"
   transform="matrix(-0.7071,-0.7071,0.7071,-0.7071,563.1771,807.9152)"
   style="fill:#ffffff"
   width="10.362"
   height="10.362"
   id="rect1312" />

	
		<rect
   x="43.950001"
   y="320.55701"
   transform="matrix(-0.7071,-0.7071,0.7071,-0.7071,-146.4601,590.811)"
   style="fill:#ffffff"
   width="10.362"
   height="10.362"
   id="rect1314" />

	
		<rect
   x="48.749001"
   y="245.556"
   transform="matrix(-0.7071,-0.7071,0.7071,-0.7071,-85.2343,466.1699)"
   style="fill:#ffffff"
   width="10.362"
   height="10.362"
   id="rect1316" />

	
		<rect
   x="316.336"
   y="37.129002"
   transform="matrix(-0.7071,-0.7071,0.7071,-0.7071,518.9454,299.5753)"
   style="fill:#ffffff"
   width="10.362"
   height="10.362"
   id="rect1318" />

	
		<rect
   x="201.241"
   y="54.974998"
   transform="matrix(-0.7071,-0.7071,0.7071,-0.7071,309.8482,248.6566)"
   style="fill:#ffffff"
   width="10.362"
   height="10.362"
   id="rect1320" />

</g>
      <g
         id="g1328">
	<path
   style="fill:#cccccc"
   d="m 265.443,365.105 v 146.717 c -3.131,0.122 -6.273,0.178 -9.438,0.178 -3.164,0 -6.307,-0.055 -9.438,-0.178 V 365.105 Z"
   id="path1324" />

	<path
   style="fill:#cccccc"
   d="M 309.366,403.966 H 202.647 c -8.549,0 -15.48,6.931 -15.48,15.48 v 45.652 c 0,8.549 6.931,15.48 15.48,15.48 h 106.719 c 8.549,0 15.48,-6.931 15.48,-15.48 v -45.652 c 0,-8.549 -6.93,-15.48 -15.48,-15.48 z"
   id="path1326" />

</g>
      <path
         style="fill:#b3b3b3"
         d="m 202.647,466.144 c -0.577,0 -1.046,-0.469 -1.046,-1.046 v -45.652 c 0,-0.577 0.469,-1.046 1.046,-1.046 h 106.719 c 0.577,0 1.046,0.469 1.046,1.046 v 45.652 c 0,0.577 -0.47,1.046 -1.046,1.046 z"
         id="path1330" />
      <g
         id="g1340">
	<circle
   style="fill:#f77759"
   cx="221.408"
   cy="443.194"
   r="12.213"
   id="circle1332" />

	<circle
   style="fill:#f77759"
   cx="290.61401"
   cy="443.194"
   r="12.213"
   id="circle1334" />

	<circle
   style="fill:#f77759"
   cx="256.00601"
   cy="443.194"
   r="12.213"
   id="circle1336" />

	<path
   style="fill:#f77759"
   d="m 68.231,389.028 v 30.378 h 35.43 V 381.8 H 68.586 c -0.233,2.376 -0.355,4.785 -0.355,7.228 z"
   id="path1338" />

</g>
      <g
         id="g1342">
</g>
      <g
         id="g1344">
</g>
      <g
         id="g1346">
</g>
      <g
         id="g1348">
</g>
      <g
         id="g1350">
</g>
      <g
         id="g1352">
</g>
      <g
         id="g1354">
</g>
      <g
         id="g1356">
</g>
      <g
         id="g1358">
</g>
      <g
         id="g1360">
</g>
      <g
         id="g1362">
</g>
      <g
         id="g1364">
</g>
      <g
         id="g1366">
</g>
      <g
         id="g1368">
</g>
      <g
         id="g1370">
</g>
    </g>
    <g
       id="g1501"
       transform="translate(1000.6294,114.45775)">
      <path
         d="M 401.17187,263.84375 C 412.73047,221.49219 388.44922,177 346.57422,163.81641 336.84766,160.75781 327,159.59375 317.41797,160.11328 c -17.32031,0.94141 -34.25,-4.875 -47.61719,-15.92578 -29.89062,-24.71875 -72.28516,-32.10156 -110.25781,-15.51172 -32.02344,13.99219 -53.67188,41.875 -60.972658,73.49219 -5.71875,24.76172 -20.816406,46.26562 -42.125,60.11328 -25.675781,16.6875 -45.257812,42.85937 -52.980468,74.98437 -16.011719,66.59766 24.996094,133.56641 91.597656,149.57813 30.67578,7.375 61.42578,2.65234 87.24219,-11.09766 16.95312,-9.03125 36.80468,-11.04687 54.99218,-4.8789 13.33204,4.51953 27.75,6.54687 42.64454,5.5664 60.30468,-3.97265 106.61328,-56.42578 102.98828,-116.7539 -0.49219,-8.21094 -1.86719,-16.14844 -4.02344,-23.73047 -4.36328,-15.33203 -0.75391,-31.70313 8.79687,-44.46875 6.01954,-8.03906 10.66016,-17.33203 13.46875,-27.63672 z m 0,0"
         fill="#b7a39a"
         id="path1460" />
      <path
         d="m 159.54297,128.67969 c -32.02344,13.98828 -53.67188,41.87109 -60.972658,73.49218 -5.71875,24.76172 -20.8125,46.26172 -42.121093,60.11329 -25.679688,16.6875 -45.257813,42.85546 -52.984375,74.98046 -16.011719,66.60157 25,133.57032 91.597656,149.58204 30.22266,7.26562 60.51562,2.79297 86.08984,-10.49219 -7.13281,-11.84375 -15.62109,-24.11719 -25.72265,-36.69141 -66.207034,-82.42187 -16.29688,-96.58984 0,-189.72265 11.26172,-64.3711 50.38281,-106.69922 73.47265,-126.70313 -22.28125,-5.83594 -46.61718,-4.49609 -69.35937,5.44141 z m 0,0"
         fill="#a08e87"
         id="path1462" />
      <path
         d="m 398.69531,64.589844 c -15,19.371094 -42.85937,22.914062 -62.23047,7.917968 -19.36718,-14.996093 -22.91406,-42.859374 -7.91406,-62.226562 14.99609,-19.371094 41.05078,-8.085938 60.42188,6.914062 19.36718,14.996094 24.71875,28.027344 9.72265,47.394532 z m 0,0"
         fill="#b7a39a"
         id="path1464" />
      <path
         d="m 510.24219,129.88281 c 8.92578,20.23828 -17.92578,40.04688 -40.04688,40.04688 -22.11719,0 -26.85156,-17.92969 -26.85156,-40.04688 0,-22.11718 4.73437,-40.046872 26.85156,-40.046872 22.11719,0 27.01172,10.484372 40.04688,40.046872 z m 0,0"
         fill="#b7a39a"
         id="path1466" />
      <g
         fill="#898890"
         id="g1476">
        <path
           d="m 181.41797,219.59375 c 0,-32.98438 -16.41016,-62.12109 -41.49219,-79.75 -21.25,15.29297 -35.66015,37.67578 -41.351561,62.32812 -5.71875,24.76172 -20.816407,46.26563 -42.125,60.11329 -13.21875,8.58984 -24.824219,19.6914 -34.023438,32.82812 16.78125,13.6875 38.210938,21.91797 61.554688,21.91797 53.812501,0 97.437501,-43.625 97.437501,-97.4375 z m 0,0"
           id="path1468" />
        <path
           d="m 382.93359,359.68359 c -0.49218,-8.20703 -1.86718,-16.14453 -4.02343,-23.73047 -4.36328,-15.33203 -0.75391,-31.69921 8.79687,-44.46484 6.01953,-8.03906 10.65625,-17.33594 13.46875,-27.63672 0.33594,-1.22656 0.63672,-2.45703 0.91016,-3.6875 -11.29688,-6.89453 -24.57813,-10.875 -38.78516,-10.875 -41.16797,0 -74.54297,33.375 -74.54297,74.54297 0,41.17188 33.375,74.54688 74.54297,74.54688 5.31641,0 10.5,-0.56641 15.5,-1.625 3.41016,-11.73829 4.90625,-24.22266 4.13281,-37.07032 z m 0,0"
           id="path1470" />
        <path
           d="m 181.41797,415.27344 c -36.0625,0 -65.29688,29.23437 -65.29688,65.30078 0,3.23047 0.24219,6.41406 0.69532,9.51953 23.21875,1.38281 45.79296,-3.85156 65.49218,-14.34375 16.95313,-9.03125 36.80469,-11.04688 54.9961,-4.87891 2.95703,1.00391 5.97265,1.87891 9.02734,2.63282 -3.53125,-32.73438 -31.24219,-58.23047 -64.91406,-58.23047 z m 0,0"
           id="path1472" />
        <path
           d="m 239.5625,331.14062 c 0,14.41407 -11.6875,26.10157 -26.09766,26.10157 -14.41406,0 -26.10156,-11.6875 -26.10156,-26.10157 0,-14.41406 11.6875,-26.09765 26.10156,-26.09765 14.41016,0 26.09766,11.68359 26.09766,26.09765 z m 0,0"
           id="path1474" />
      </g>
      <path
         d="m 155.42969,439.66016 c -3.77344,-4.69532 -7.16407,-9.16016 -10.21094,-13.44141 -17.55078,11.70703 -29.10156,31.67578 -29.10156,54.35547 0,3.23047 0.24609,6.41406 0.69922,9.51953 22.76953,1.35937 44.91015,-3.64844 64.33593,-13.73438 -7.13281,-11.84375 -15.625,-24.12109 -25.72265,-36.69921 z m 0,0"
         fill="#75747a"
         id="path1478" />
      <path
         d="m 142.93359,297.17969 c 4.71094,-13.40625 9.26172,-28.76953 12.4961,-47.24219 4.0625,-23.23828 11.76953,-43.61328 21.03125,-61.08984 -6.65235,-20.00391 -19.625,-37.11719 -36.53516,-49.00391 -21.25,15.29687 -35.66015,37.67578 -41.355468,62.33203 -5.714843,24.76172 -20.8125,46.26172 -42.121093,60.10938 -13.21875,8.59375 -24.824219,19.6914 -34.023438,32.82812 16.777344,13.69141 38.207031,21.91797 61.554688,21.91797 22.160161,0 42.585941,-7.39453 58.953121,-19.85156 z m 0,0"
         fill="#75747a"
         id="path1480" />
    </g>
  </g>
</svg>
